<svg
          viewBox="0 0 1024 1024"
          width="24"
          height="24"
          version="1.1"
          xmlns="http://www.w3.org/2000/svg"
        >
          <path
            d="M89.8048 92.3136m236.032 0l372.2752 0q236.032 0 236.032 236.032l0 372.2752q0 236.032-236.032 236.032l-372.2752 0q-236.032 0-236.032-236.032l0-372.2752q0-236.032 236.032-236.032Z"
            fill="#FDA13F"
            p-id="1225"
          ></path>
          <path
            d="M303.1552 326.2976a366.336 366.336 0 0 0-213.3504 68.2496v306.0736a236.032 236.032 0 0 0 236.032 236.032h253.952a367.8208 367.8208 0 0 0-276.48-610.3552z"
            fill="#FBB067"
            p-id="1226"
          ></path>
          <path
            d="M268.4416 413.8496H404.48v375.4496H226.6112V455.68a41.8304 41.8304 0 0 1 41.8304-41.8304z"
            fill="#FDDFC1"
            p-id="1227"
          ></path>
          <path
            d="M794.6752 786.176l-41.9328-42.496a129.024 129.024 0 1 0-35.84 36.5568l41.5744 42.1376a25.6 25.6 0 1 0 36.1984-36.1984z m-232.6528-112.64a82.5344 82.5344 0 1 1 82.5344 82.5344 82.5344 82.5344 0 0 1-82.5344-82.5344z"
            fill="#FFFFFF"
            p-id="1228"
          ></path>
          <path
            d="M756.1728 279.6544L540.7232 168.448a25.6 25.6 0 0 0-23.296 0L297.5232 279.552a25.6 25.6 0 0 0 11.5712 48.4352 25.088 25.088 0 0 0 11.52-2.7648l13.312-6.7072v470.784h184.8832A170.9056 170.9056 0 0 1 724.0192 522.24V320.6656l8.6528 4.4544a25.6 25.6 0 1 0 23.5008-45.4656z m-152.832 204.8h-148.48a25.6 25.6 0 0 1 0-51.2h148.736a25.6 25.6 0 0 1 0 51.2z m0-100.7104h-148.48a25.6 25.6 0 1 1 0-51.2h148.736a25.6 25.6 0 0 1 0 51.2z"
            fill="#FFFFFF"
            p-id="1229"
          ></path>
        </svg>