<svg
            t="1690658751245"
            class="icon"
            viewBox="0 0 1024 1024"
            version="1.1"
            xmlns="http://www.w3.org/2000/svg"
            p-id="28509"
            width="24"
            height="24"
          >
            <path
              d="M594.5344 286.5664c-18.0224-34.56 22.272-79.0016 61.5936-58.7776 140.288-3.0208 4.2496-161.8432-116.6848-51.8656-56.9856 50.176-28.3136 91.2384-44.0832 147.456-115.712 57.3952-181.7088 238.2336-74.1376 327.2192 213.8624 112.4352 269.056-112.7936 190.6176-267.3664 283.0848 42.4448 123.4944 425.1648-102.656 408.832-288.9728-10.24-339.456-380.2112-101.5808-486.0928 37.0176-17.664 23.2448-89.4464-28.7232-80.9472-251.8016 102.7584-270.0288 436.2752-76.3392 583.0144 233.6768 178.8928 554.8032 5.376 552.3456-272.7424-9.728-169.5232-122.88-225.9968-260.352-248.7296zM509.184 595.456c-105.472-13.312-43.7248-161.536 20.736-191.488 10.7008 53.0944 80.5888 183.808-20.736 191.488z m479.5392-85.9648c-32.2048 643.1744-930.2016 619.52-951.4496 0 32.2048-643.2256 930.2016-619.5712 951.4496 0z"
              p-id="28510"
              fill="#d81e06"
            ></path>
          </svg>