<?xml version="1.0" standalone="no"?><!DOCTYPE svg PUBLIC "-//W3C//DTD SVG 1.1//EN" "http://www.w3.org/Graphics/SVG/1.1/DTD/svg11.dtd"><svg t="1729219143937" class="icon" viewBox="0 0 1024 1024" version="1.1" xmlns="http://www.w3.org/2000/svg" p-id="1732" xmlns:xlink="http://www.w3.org/1999/xlink" width="16" height="16"><path d="M960.27 621.98c0 56.74-25.1 107.61-64.81 142.13-33.04 28.74-76.21 46.12-123.43 46.12h-546.6c-1.31 0-2.61-0.02-3.92-0.05-87.5-2.08-157.78-73.65-157.78-161.65 0-89.31 72.4-161.7 161.7-161.7 1.55 0 3.1 0.02 4.65 0.07-0.47-3.98-0.71-8.05-0.71-12.15 0-57.2 46.38-103.59 103.59-103.59 9.89 0 19.45 1.39 28.52 4 23.9-92.81 108.16-161.38 208.43-161.38 118.87 0 215.22 96.35 215.22 215.22 0 1.75-0.02 3.48-0.07 5.22 97.89 6.66 175.21 88.18 175.21 187.76z" fill="#54C2F0" p-id="1733"></path></svg>