<?xml version="1.0" standalone="no"?><!DOCTYPE svg PUBLIC "-//W3C//DTD SVG 1.1//EN" "http://www.w3.org/Graphics/SVG/1.1/DTD/svg11.dtd"><svg t="1729219132560" class="icon" viewBox="0 0 1024 1024" version="1.1" xmlns="http://www.w3.org/2000/svg" p-id="1569" xmlns:xlink="http://www.w3.org/1999/xlink" width="16" height="16"><path d="M945.52 527.19H812.36c-8.39 0-15.19-6.8-15.19-15.19s6.8-15.19 15.19-15.19h133.16c8.39 0 15.19 6.8 15.19 15.19s-6.8 15.19-15.19 15.19zM211.64 527.19H78.48c-8.39 0-15.19-6.8-15.19-15.19s6.8-15.19 15.19-15.19h133.16c8.39 0 15.19 6.8 15.19 15.19s-6.8 15.19-15.19 15.19zM511.66 226.33c-8.39 0-15.19-6.8-15.19-15.19V77.97c0-8.39 6.8-15.19 15.19-15.19s15.19 6.8 15.19 15.19v133.16c0 8.4-6.8 15.2-15.19 15.2zM733 324.17c-3.89 0-7.78-1.48-10.74-4.45-5.93-5.93-5.93-15.55 0-21.48l94.16-94.16c5.93-5.93 15.55-5.93 21.48 0s5.93 15.55 0 21.48l-94.16 94.16a15.11 15.11 0 0 1-10.74 4.45zM288.01 324.17c-3.89 0-7.78-1.48-10.74-4.45l-94.16-94.16c-5.93-5.93-5.93-15.55 0-21.48s15.55-5.93 21.48 0l94.16 94.16c5.93 5.93 5.93 15.55 0 21.48a15.11 15.11 0 0 1-10.74 4.45z" fill="#EED97C" p-id="1570"></path><path d="M511.66 512m-226.21 0a226.21 226.21 0 1 0 452.42 0 226.21 226.21 0 1 0-452.42 0Z" fill="#F6DF7B" p-id="1571"></path><path d="M511.66 961.22c-8.39 0-15.19-6.8-15.19-15.19V812.86c0-8.39 6.8-15.19 15.19-15.19s15.19 6.8 15.19 15.19v133.16c0 8.4-6.8 15.2-15.19 15.2zM827.16 824.37c-3.89 0-7.78-1.48-10.74-4.45l-94.16-94.16c-5.93-5.93-5.93-15.55 0-21.48s15.55-5.93 21.48 0l94.16 94.16c5.93 5.93 5.93 15.55 0 21.48a15.11 15.11 0 0 1-10.74 4.45zM193.85 824.37c-3.89 0-7.78-1.48-10.74-4.45-5.93-5.93-5.93-15.55 0-21.48l94.16-94.16c5.93-5.93 15.55-5.93 21.48 0s5.93 15.55 0 21.48l-94.16 94.16a15.11 15.11 0 0 1-10.74 4.45z" fill="#EED97C" p-id="1572"></path></svg>