<?xml version="1.0" standalone="no"?><!DOCTYPE svg PUBLIC "-//W3C//DTD SVG 1.1//EN" "http://www.w3.org/Graphics/SVG/1.1/DTD/svg11.dtd"><svg t="1729219172552" class="icon" viewBox="0 0 1024 1024" version="1.1" xmlns="http://www.w3.org/2000/svg" p-id="2543" xmlns:xlink="http://www.w3.org/1999/xlink" width="16" height="16"><path d="M368.57 919.72c-12.85 0-23.26-10.41-23.26-23.26v-98.89c0-12.85 10.41-23.26 23.26-23.26s23.26 10.41 23.26 23.26v98.89c0 12.85-10.41 23.26-23.26 23.26zM209.9 919.72c-12.85 0-23.26-10.41-23.26-23.26v-98.89c0-12.85 10.41-23.26 23.26-23.26s23.26 10.41 23.26 23.26v98.89c0 12.85-10.42 23.26-23.26 23.26zM825.29 888.45c-2.39 4.16-6.75 6.47-11.2 6.47-2.21 0-4.41-0.57-6.45-1.73l-41.21-23.8v47.57c0 7.15-5.78 12.93-12.91 12.93-7.15 0-12.93-5.78-12.93-12.93V869.4l-41.21 23.8a12.842 12.842 0 0 1-6.44 1.73c-4.47 0-8.83-2.32-11.21-6.47-3.57-6.18-1.44-14.08 4.74-17.65l41.19-23.78-41.19-23.8c-6.18-3.57-8.31-11.47-4.74-17.65 3.57-6.18 11.47-8.3 17.65-4.72l41.21 23.78v-47.57c0-7.15 5.78-12.93 12.93-12.93 7.13 0 12.91 5.78 12.91 12.93v47.59l41.21-23.8c6.18-3.57 14.08-1.46 17.65 4.72 3.57 6.18 1.46 14.08-4.72 17.65l-41.21 23.8 41.21 23.78c6.18 3.57 8.3 11.46 4.72 17.64zM632.25 888.45c-2.39 4.16-6.75 6.47-11.2 6.47-2.21 0-4.41-0.57-6.45-1.73l-41.21-23.8v47.57c0 7.15-5.78 12.93-12.91 12.93-7.15 0-12.93-5.78-12.93-12.93V869.4l-41.21 23.8a12.842 12.842 0 0 1-6.44 1.73c-4.47 0-8.83-2.32-11.21-6.47-3.57-6.18-1.44-14.08 4.74-17.65l41.19-23.78-41.19-23.8c-6.18-3.57-8.31-11.47-4.74-17.65 3.57-6.18 11.47-8.3 17.65-4.72l41.21 23.78v-47.57c0-7.15 5.78-12.93 12.93-12.93 7.13 0 12.91 5.78 12.91 12.93v47.59l41.21-23.8c6.18-3.57 14.08-1.46 17.65 4.72 3.57 6.18 1.46 14.08-4.72 17.65l-41.21 23.8 41.21 23.78c6.18 3.57 8.29 11.46 4.72 17.64zM960 502.07c0 56.71-25.09 107.54-64.77 142.04-33.02 28.72-76.16 46.1-123.35 46.1H225.61c-1.31 0-2.61-0.02-3.92-0.05C134.24 688.07 64 616.54 64 528.6c0-89.26 72.35-161.61 161.61-161.61 1.55 0 3.1 0.02 4.65 0.07-0.47-3.98-0.71-8.04-0.71-12.14 0-57.16 46.35-103.53 103.53-103.53 9.88 0 19.44 1.39 28.5 3.99C385.47 162.62 469.67 94.1 569.88 94.1c118.79 0 215.09 96.29 215.09 215.09 0 1.75-0.02 3.48-0.07 5.22 97.82 6.67 175.1 88.14 175.1 187.66z" fill="#54C2F0" p-id="2544"></path></svg>