<?xml version="1.0" standalone="no"?><!DOCTYPE svg PUBLIC "-//W3C//DTD SVG 1.1//EN" "http://www.w3.org/Graphics/SVG/1.1/DTD/svg11.dtd"><svg t="1729219169419" class="icon" viewBox="0 0 1024 1024" version="1.1" xmlns="http://www.w3.org/2000/svg" p-id="2379" xmlns:xlink="http://www.w3.org/1999/xlink" width="16" height="16"><path d="M968.75 876.55c0 12.63-10.25 22.88-22.9 22.88-12.63 0-22.88-10.25-22.88-22.88 0-24.01-13.82-47.1-38.92-65.01-27.42-19.56-64.33-30.34-103.9-30.34H434.44c-12.63 0-22.88-10.25-22.88-22.9 0-12.63 10.25-22.88 22.88-22.88h345.71c49.02 0 95.37 13.8 130.49 38.87 37.47 26.73 58.11 63.05 58.11 102.26z" fill="#54C2F0" p-id="2380"></path><path d="M649.48 863.86h-345.7c-12.64 0-22.89-10.25-22.89-22.89s10.25-22.89 22.89-22.89h345.7c12.64 0 22.89 10.25 22.89 22.89s-10.25 22.89-22.89 22.89zM800.25 570.07c0 39.21-20.64 75.53-58.1 102.26-35.12 25.05-81.47 38.87-130.49 38.87h-345.7c-12.65 0-22.9-10.25-22.9-22.9 0-12.63 10.25-22.88 22.9-22.88h345.7c39.57 0 76.48-10.78 103.9-30.36 25.1-17.91 38.92-40.98 38.92-64.99 0-12.65 10.25-22.9 22.9-22.9 12.62 0 22.87 10.25 22.87 22.9z" fill="#54C2F0" p-id="2381"></path><path d="M581.04 609.18H372.2c-12.64 0-22.89-10.25-22.89-22.89s10.25-22.89 22.89-22.89h208.84c12.64 0 22.89 10.25 22.89 22.89s-10.24 22.89-22.89 22.89z" fill="#54C2F0" p-id="2382"></path><path d="M764.7 341.37c0.05-1.7 0.07-3.41 0.07-5.13 0-116.91-94.76-211.67-211.67-211.67-98.62 0-181.49 67.43-205 158.72-8.92-2.57-18.32-3.93-28.05-3.93-56.27 0-101.89 45.63-101.89 101.89 0 4.04 0.23 8.04 0.7 11.95-1.53-0.05-3.05-0.07-4.58-0.07-87.84 0-159.04 71.2-159.04 159.04 0 86.55 69.12 156.94 155.18 158.99 1.29 0.04 2.57 0.05 3.86 0.05h18.03c-4.45-6.53-7.07-14.41-7.07-22.9 0-22.43 18.27-40.68 40.7-40.68h345.7c35.91 0 69.12-9.62 93.56-27.06 20.29-14.46 31.46-32.41 31.46-50.5 0-22.45 18.27-40.7 40.7-40.7 22.43 0 40.68 18.25 40.68 40.7 0 45.11-23.27 86.58-65.55 116.75-13.67 9.74-28.89 17.89-45.17 24.39h44.56c46.44 0 88.9-17.1 121.39-45.36 39.05-33.95 63.74-83.98 63.74-139.79 0.01-97.95-76.04-178.12-172.31-184.69zM581.04 626.99H372.2c-22.43 0-40.7-18.27-40.7-40.7 0-22.43 18.27-40.7 40.7-40.7h208.84c22.45 0 40.7 18.27 40.7 40.7 0 22.43-18.25 40.7-40.7 40.7z" fill="#54C2F0" p-id="2383"></path></svg>