<?xml version="1.0" standalone="no"?><!DOCTYPE svg PUBLIC "-//W3C//DTD SVG 1.1//EN" "http://www.w3.org/Graphics/SVG/1.1/DTD/svg11.dtd"><svg t="1729219160274" class="icon" viewBox="0 0 1024 1024" version="1.1" xmlns="http://www.w3.org/2000/svg" p-id="2056" xmlns:xlink="http://www.w3.org/1999/xlink" width="16" height="16"><path d="M339.22 886.71c-2.38 4.14-6.7 6.44-11.14 6.44-2.18 0-4.39-0.56-6.42-1.72l-41-23.67v47.33c0 7.11-5.77 12.87-12.87 12.87s-12.87-5.75-12.87-12.87v-47.33l-41 23.67a12.943 12.943 0 0 1-6.42 1.72c-4.45 0-8.77-2.31-11.14-6.44-3.56-6.15-1.45-14.01 4.7-17.57l41-23.67-41-23.68c-6.15-3.56-8.26-11.42-4.7-17.57 3.54-6.15 11.42-8.26 17.57-4.7l41 23.67v-47.35c0-7.1 5.77-12.87 12.87-12.87s12.87 5.77 12.87 12.87v47.35l41-23.67c6.15-3.56 14.03-1.45 17.57 4.7 3.56 6.15 1.45 14.01-4.7 17.57l-41 23.68 41 23.67c6.13 3.55 8.23 11.41 4.68 17.57zM827.67 886.71c-2.4 4.14-6.72 6.44-11.16 6.44-2.18 0-4.39-0.56-6.41-1.72l-41.02-23.68v47.35c0 7.11-5.75 12.87-12.87 12.87-7.1 0-12.85-5.75-12.85-12.87v-47.35l-41.02 23.68a12.943 12.943 0 0 1-6.42 1.72c-4.45 0-8.77-2.31-11.14-6.44-3.56-6.15-1.45-14.01 4.7-17.57l41.02-23.67-41.02-23.68c-6.15-3.56-8.26-11.42-4.7-17.57 3.56-6.15 11.42-8.26 17.57-4.7l41.02 23.69v-47.37c0-7.1 5.75-12.87 12.85-12.87 7.11 0 12.87 5.77 12.87 12.87v47.35l41.02-23.67c6.13-3.56 14.01-1.45 17.57 4.7 3.54 6.15 1.43 14.01-4.72 17.57l-41 23.68 41 23.67c6.14 3.55 8.25 11.41 4.71 17.57zM583.43 886.71c-2.38 4.14-6.7 6.44-11.14 6.44-2.18 0-4.39-0.56-6.42-1.72l-41-23.67v47.33c0 7.11-5.75 12.87-12.87 12.87-7.1 0-12.87-5.75-12.87-12.87v-47.33l-41 23.67a12.943 12.943 0 0 1-6.42 1.72c-4.45 0-8.77-2.31-11.14-6.44-3.56-6.15-1.45-14.01 4.7-17.57l41-23.67-41-23.68c-6.15-3.56-8.26-11.42-4.7-17.57 3.54-6.15 11.42-8.26 17.57-4.7l41 23.67v-47.35c0-7.1 5.77-12.87 12.87-12.87 7.11 0 12.87 5.77 12.87 12.87v47.35l41-23.67c6.15-3.56 14.03-1.45 17.57 4.7 3.56 6.15 1.45 14.01-4.7 17.57l-41 23.68 41 23.67c6.14 3.55 8.24 11.41 4.68 17.57zM957.92 502.12c0 56.44-24.97 107.05-64.47 141.38-32.87 28.59-75.81 45.88-122.78 45.88H226.94c-1.31 0-2.6-0.02-3.9-0.05-87.04-2.07-156.96-73.27-156.96-160.8 0-88.84 72.02-160.86 160.86-160.86 1.54 0 3.09 0.02 4.63 0.07-0.47-3.96-0.71-8-0.71-12.09 0-56.9 46.14-103.05 103.05-103.05 9.84 0 19.35 1.38 28.37 3.97 23.78-92.33 107.59-160.53 207.34-160.53 118.24 0 214.09 95.85 214.09 214.09 0 1.74-0.02 3.47-0.07 5.19 97.37 6.64 174.28 87.74 174.28 186.8z" fill="#54C2F0" p-id="2057"></path></svg>