<svg
          viewBox="0 0 1024 1024"
          width="22"
          height="22"
          version="1.1"
          xmlns="http://www.w3.org/2000/svg"
        >
          <path
            d="M491.553 314.873c0-17.7-14.316-32.052-32.004-32.052-17.676 0-32.004 14.352-32.004 32.052 0 17.7 14.328 32.064 32.004 32.064 17.688 0 32.004-14.364 32.004-32.064zM450.812 303.738c0-7.908 6.876-14.327 15.36-14.328s15.36 6.42 15.36 14.328-6.876 14.327-15.36 14.328-15.36-6.42-15.36-14.328zM843.248 257.729c-3.816-16.296-10.703-21.156-4.596-47.892 4.032-17.615 61.452-68.964 31.788-92.304-29.664-23.339-38.245 14.736-122.916 16.98-51.564 1.368-89.064-12.18-127.728-14.772-25.86-5.436-52.668-8.328-80.148-8.328-26.005 0-51.408 2.604-75.996 7.488-0.324 0.024-0.684 0.06-1.008 0.096-6.588 0.588-13.393 1.188-20.4 1.776-0.337 0.024-0.684 0.06-1.008 0.084-7.248 0.6-14.652 1.189-22.188 1.728-0.156 0.012-0.301 0.012-0.455 0.024-7.668 0.54-15.432 1.032-23.256 1.428-0.132 0-0.252 0.012-0.373 0.012-7.872 0.396-15.768 0.72-23.64 0.912-103.044 5.964-125.172-19.956-145.176-32.892-20.652-13.356-41.916-4.968-55.692 9.876-13.764 14.844-19.524 49.908 19.655 66.504 24.24 10.272 25.428 8.484 44.507 50.928 1.5 3.348 2.556 6.468 3.432 9.468 0.18 0.636 0.372 1.271 0.528 1.896 0.744 2.892 1.259 5.676 1.5 8.256 0.012 0.216 0.012 0.408 0.024 0.612 0.204 2.592 0.192 5.028-0.012 7.308-0.012 0.18-0.012 0.373-0.036 0.54-0.252 2.424-0.696 4.692-1.296 6.756-2.856 9.887-8.952 15.744-11.82 18.024 2.892-2.328 8.976-8.184 11.82-18.024-54.852 67.092-87.792 152.844-87.792 246.324 0 102.731 39.756 196.164 104.712 265.729 2.136 2.28 9.6 11.34 0.071 14.676-29.76 7.188-71.964-35.316-88.357-53.448-7.403-12.612-20.964-21.168-36.648-21.168-23.557 0-42.648 19.092-42.648 42.648 0 10.908 4.224 20.748 10.956 28.296 80.508 122.76 219.084 203.976 376.752 203.976 245.761 0 452.46-155.772 452.46-480.707 0.024-91.86-31.848-176.232-85.02-242.808zM367.796 322.313c0-49.225 39.852-89.124 89.016-89.124 49.152 0 89.004 39.912 89.004 89.124 0 49.212-39.852 89.124-89.004 89.124-49.152-0.012-89.016-39.912-89.016-89.124zM606.679 629.585c-85.597 0-166.452-59.784-164.952-121.5 1.5-61.728 297.312-72.252 315.324-13.548 18.023 58.716-64.8 135.048-150.372 135.047zM751.232 397.637c-44.184 0-80.004-35.868-80.004-80.1s35.82-80.112 80.004-80.112c44.196 0 79.991 35.868 79.992 80.112s-35.808 80.1-79.992 80.1zM758.012 282.389c-15.756 0-28.524 12.792-28.524 28.572s12.756 28.56 28.524 28.559 28.524-12.78 28.524-28.559c0-15.78-12.768-28.572-28.524-28.572zM765.38 314.357c-7.572 0-13.716-5.724-13.716-12.768 0-7.056 6.144-12.768 13.716-12.768 7.56 0 13.692 5.712 13.692 12.768 0 7.044-6.132 12.768-13.692 12.768z"
            fill="#ec695c"
            p-id="1318"
          ></path>
        </svg>