<svg
            t="1690716745178"
            class="icon"
            viewBox="0 0 1024 1024"
            version="1.1"
            xmlns="http://www.w3.org/2000/svg"
            p-id="5373"
            width="24"
            height="24"
          >
            <path
              d="M0.923542 156.569005c0 55.910188 74.137318 107.519591 194.559261 135.525885s268.54298 28.006294 389.118521 0 194.559261-79.615697 194.559261-135.525885c0-86.476471-174.079338-156.569005-389.118522-156.569005s-389.118521 70.092534-389.118521 156.569005z m532.119578 340.683505C588.799708 454.244674 649.420278 419.838405 755.403875 415.947219c18.227131-15.359942 24.115108-30.361485 25.599903-53.913395V220.159163c-5.427179 84.377279-177.100127 152.52422-389.118522 152.524221S0.974742 302.078852 0.974742 215.90958v134.911487c0 87.039669 174.386537 157.234603 389.118521 157.234602 56.319786 0 96.409234-1.740793 143.359455-10.803159zM0.923542 404.836862v134.962687c0 86.374072 174.386537 156.569005 389.118521 156.569005h28.364693c3.481587-47.46222 29.132689-97.27963 62.310163-138.239475a767.997082 767.997082 0 0 1-90.674856 5.785578c-214.527185 0-389.118521-70.143733-389.118521-159.231395z m388.452924 351.793863c-215.448781 0-389.118521-67.378944-389.118521-156.364206v134.757888c0 86.322872 174.591337 156.415406 389.42572 156.415406h53.401397c-22.323115-39.270251-29.132689-82.841285-29.132689-134.809088h-24.575907z m555.978687-190.821675a268.184581 268.184581 0 0 0-379.339358 0 268.33818 268.33818 0 0 0 379.288158 379.697757 268.54298 268.54298 0 0 0 0-379.595357z m-128.716311 256.920624a372.273785 372.273785 0 0 0-62.770961 81.151691A371.915387 371.915387 0 0 0 691.199319 822.729674a371.761787 371.761787 0 0 0-81.100492-62.719762A373.75858 373.75858 0 0 0 691.199319 697.23895a371.352189 371.352189 0 0 0 62.719762-81.100491 373.348981 373.348981 0 0 0 62.770961 81.100491 373.75858 373.75858 0 0 0 81.100492 62.770962 371.761787 371.761787 0 0 0-81.151692 62.719762z"
              fill="#FAC45A"
              p-id="5374"
            ></path>
          </svg>