<svg
              viewBox="0 0 1024 1024"
              width="22"
              height="22"
              version="1.1"
              xmlns="http://www.w3.org/2000/svg"
            >
              <path
                d="M224.2 472.3c-13-5.7-3.7-23.5 8.2-19 91 34 146.8 108.7 182.4 138.5 5.6 4.7 14 2.9 17.3-3.5 16.8-32 45.8-113.7-57.1-168.6-87.3-46.5-188-53.6-247.3-82.2-14.5-7-31.1 4.6-29.9 20.7 5 69.7 28.9 124.7 62.3 181.5 67.3 114.3 140.6 132.9 216.6 104 2.2-0.9 4.5-1.8 7-3 7-3.4 8.3-12.9 2.5-18.1 0.1 0-45.7-69.3-162-150.3z"
                fill="#FFD401"
              ></path>
              <path
                d="M282.7 849.9c79.5-137 172.4-263.1 385.4-401.3 9.8-6.4 2.1-21.5-8.9-17.4C497.7 492.8 429.7 585 373.3 640.8c-8.7 8.7-23.4 6.3-29.1-4.6-27.2-51.8-69.5-174.1 97.3-263.1 147.7-78.8 319.9-91.4 429.7-93.3 18.9-0.3 31.5 19.4 23.3 36.4C863.7 380 842.6 478 789.9 567.6 680.8 753.1 545.5 766.7 422.2 719.8c-8.8-3.4-18.8-0.2-24 7.7-16.6 25.2-50.3 80.1-58.7 122.4-11.4 56.8-82.2 43.9-56.8 0z"
                fill="#8BC03C"
              ></path>
              <path
                d="M375 419.6c-30.1 28.2-45.8 57.7-52.4 86.1 40.6 32.4 70.2 67.7 92.1 85.9 1.2 1 2.5 1.6 3.9 2.1 6.5-6.7 13.3-13.7 20.4-20.7 15.2-37.9 25.3-105.7-64-153.4zM318.8 548.2c1.6 36.1 14.7 67.6 25.5 88.1 5.7 10.9 20.3 13.3 29.1 4.6 4.9-4.9 10-10 15.1-15.4-0.6-1-1.3-2-2.2-2.8 0-0.1-20.1-30.5-67.5-74.5z"
                fill="#8BA000"
              ></path>
            </svg>