<svg
        viewBox="0 0 1024 1024"
        width="25"
        height="25"
        version="1.1"
        xmlns="http://www.w3.org/2000/svg"
      >
        <path
          d="M512 512m-512 0a512 512 0 1 0 1024 0 512 512 0 1 0-1024 0Z"
          fill="#4EDD92"
          p-id="1288"
        ></path>
        <path
          d="M706.56 249.6H422.4c-56.32 0-101.12 39.68-101.12 88.32v43.52c3.84-1.28 7.68-1.28 11.52-1.28 38.4-2.56 81.92-3.84 120.32 8.96 62.72-2.56 124.16 1.28 185.6 17.92 93.44 24.32 80.64 112.64 80.64 195.84 49.92-5.12 89.6-42.24 89.6-87.04V337.92c-1.28-48.64-46.08-88.32-102.4-88.32z"
          fill="#FFFFFF"
          opacity=".5"
          p-id="1289"
        ></path>
        <path
          d="M632.32 335.36h-307.2c-60.16 0-110.08 49.92-110.08 110.08v218.88c0 60.16 49.92 110.08 110.08 110.08h307.2c60.16 0 110.08-49.92 110.08-110.08V445.44c0-60.16-49.92-110.08-110.08-110.08z m-208.64 101.12h21.76c11.52 0 21.76 10.24 21.76 21.76s-10.24 21.76-21.76 21.76h-21.76c-11.52 0-21.76-10.24-21.76-21.76 0-12.8 10.24-21.76 21.76-21.76z m-98.56 0h21.76c11.52 0 21.76 10.24 21.76 21.76s-10.24 21.76-21.76 21.76h-21.76c-11.52 0-21.76-10.24-21.76-21.76 0-12.8 10.24-21.76 21.76-21.76z m307.2 250.88h-307.2c-11.52 0-21.76-10.24-21.76-21.76s10.24-21.76 21.76-21.76h307.2c11.52 0 21.76 10.24 21.76 21.76s-8.96 21.76-21.76 21.76z m0-110.08h-307.2c-11.52 0-21.76-10.24-21.76-21.76s10.24-21.76 21.76-21.76h307.2c11.52 0 21.76 10.24 21.76 21.76 0 11.52-8.96 21.76-21.76 21.76z"
          fill="#FFFFFF"
          p-id="1290"
        ></path>
      </svg>