<svg
                  t="1692169675331"
                  class="icon"
                  viewBox="0 0 1024 1024"
                  version="1.1"
                  xmlns="http://www.w3.org/2000/svg"
                  p-id="1904"
                  id="mx_n_1692169675333"
                  width="23"
                  height="23"
                >
                  <path
                    d="M227.18976 468.20352l89.45152 144.53248h-28.35456l-89.54368-144.6912 28.44672 0.15872z"
                    fill="#8B87C1"
                    p-id="1905"
                  ></path>
                  <path
                    d="M392.14592 145.02912l92.83584 279.92064-243.7632-1.43872-80.9472-0.48128-33.536-0.18944a21.7088 21.7088 0 0 0-7.16288 1.152 31.37536 31.37536 0 0 1-24.07424-1.75616 31.11936 31.11936 0 0 1-15.72864-18.22208 31.45728 31.45728 0 0 1-1.62816-9.97376 31.46752 31.46752 0 0 1 21.61152-29.85984c2.304-0.768 4.47488-1.92 6.4256-3.38944l285.96736-215.76192z"
                    fill="#FF4893"
                    p-id="1906"
                  ></path>
                  <path
                    d="M928.77824 630.50752c0.896 1.536 1.34144 3.29216 1.28 5.11488 0 0.512-0.06144 1.024-0.15872 1.536a11.74016 11.74016 0 0 1-0.48128-1.46944l-1.92-6.90688c0.48128 0.512 0.896 1.08544 1.28 1.72544z"
                    fill="#5FCEFF"
                    p-id="1907"
                  ></path>
                  <path
                    d="M929.41824 635.68896c0.128 0.512 0.28672 0.99328 0.48128 1.46944-0.86528 4.60288-4.95616 8.15104-9.74848 8.15104h-0.256a9.8816 9.8816 0 0 1-9.65632-10.09152v-0.0768c0.15872-5.43232 4.5056-9.68704 10.13248-9.68704 2.78016 0.06144 5.30944 1.28 7.12704 3.32288l1.92 6.912z"
                    fill="#5FCEFF"
                    p-id="1908"
                  ></path>
                  <path
                    d="M987.0592 513.75616a22.34368 22.34368 0 0 0-30.88384-6.84032l-39.16288 24.97024a22.34368 22.34368 0 0 0-9.52832 24.87296l6.74816 24.23296 6.13888 22.0928-6.13888-22.0928c-26.95168 2.78016-47.95392 25.0624-48.75264 52.84352a54.25152 54.25152 0 0 0 14.96064 39.13216 54.3232 54.3232 0 0 0 38.20032 17.07008c0.512 0.03072 0.99328 0.03072 1.50016 0.03072 29.79328 0 53.80608-23.33696 54.66624-53.22752a54.272 54.272 0 0 0-5.94432-26.2144l-13.84448-49.90464 25.1904-16.04608a22.38976 22.38976 0 0 0 6.85056-30.91968z m-39.16288 138.10688z m-13.25056-6.86592c0.40448 0.4352 0.86016 0.8192 1.30048 1.21856-0.44032-0.40448-0.89088-0.78336-1.30048-1.21856z m8.12544 5.4784c-0.23552-0.09216-0.48128-0.1536-0.71168-0.256 0.22528 0.1024 0.47616 0.16384 0.71168 0.256z m-2.67264-1.26464c-0.24064-0.13312-0.49664-0.24064-0.73216-0.384 0.23552 0.14336 0.49152 0.25088 0.73216 0.384z m-2.20672-1.41312c-0.33792-0.24064-0.6912-0.4608-1.01376-0.72192 0.32256 0.26112 0.68096 0.47616 1.01376 0.72192z m-1.05472-40.064z m11.1872 11.36128z m2.35008 5.04832a33.28 33.28 0 0 1 1.0496 3.14368c-0.2816-1.06496-0.6656-2.10432-1.0496-3.14368z m1.7152 6.73792c0.03584 0.26624 0.11264 0.51712 0.14336 0.78336-0.03072-0.26624-0.10752-0.52224-0.14336-0.78336z m-18.85696-25.03168z m0.9728 38.6048z m-13.83424-18.9952a9.7792 9.7792 0 0 1 7.12704 3.32288 9.472 9.472 0 0 1 2.56 6.84032c0 0.512-0.06656 1.024-0.15872 1.536-0.86528 4.60288-4.95616 8.15104-9.74848 8.15104h-0.3328a9.8816 9.8816 0 0 1-9.57952-10.1632c0.15872-5.43744 4.5056-9.68704 10.13248-9.68704z m13.7472 38.94272c-0.71168 0.34304-1.41312 0.7168-2.1504 1.00864 0.73728-0.29184 1.43872-0.6656 2.1504-1.00864z m-3.76832 1.536c-0.81408 0.27136-1.61792 0.57344-2.46272 0.77824 0.83968-0.20992 1.64864-0.50688 2.46272-0.77824z m-4.43904 1.13664c-0.75264 0.13824-1.48992 0.31232-2.25792 0.39936 0.76288-0.08704 1.50528-0.26112 2.25792-0.39936z m-38.05184-32.59904z m1.1776 9.64096z m46.79168 19.46624c0.57856-0.32256 1.11616-0.71168 1.67424-1.07008-0.55808 0.3584-1.09568 0.74752-1.67424 1.07008z m3.584-2.31424c0.43008-0.32256 0.8192-0.69632 1.2288-1.03936-0.41472 0.34304-0.79872 0.7168-1.2288 1.03936z m3.23072-2.75456c0.37376-0.36352 0.70144-0.77824 1.05472-1.16224-0.3584 0.384-0.68096 0.79872-1.05472 1.16224z m5.0176-6.30784z m18.82624-6.528c0.50176-0.4864 1.0496-0.92672 1.50016-1.45408-0.45056 0.52736-1.00352 0.96768-1.50016 1.45408z m-7.47008 4.77696c0.72704-0.2816 1.48992-0.50176 2.17088-0.84992-0.68096 0.34816-1.44384 0.56832-2.17088 0.84992z m4.01408-2.03776c0.61952-0.39936 1.28-0.7424 1.84832-1.19296-0.56832 0.45568-1.2288 0.79872-1.84832 1.19296z m10.19392-18.00192c0.0256-0.7424 0.11776-1.47456 0.06656-2.2272 0.04608 0.74752-0.04608 1.47968-0.06656 2.2272z m-3.96288 11.98592c0.39424-0.56832 0.8448-1.09568 1.18272-1.69472-0.33792 0.59904-0.78848 1.13152-1.18272 1.69472z m2.06336-3.67616c0.28672-0.64512 0.63488-1.26464 0.86016-1.93536-0.22528 0.67072-0.57344 1.29024-0.86016 1.93536z m1.33632-3.98336c0.16896-0.72192 0.39936-1.42336 0.49664-2.16064-0.09728 0.73728-0.32768 1.43872-0.49664 2.16064z m-0.13312-10.99264c0.2048 0.7424 0.256 1.48992 0.384 2.23744-0.128-0.76288-0.18432-1.52064-0.39424-2.28352l0.01024 0.04608zM973.37856 243.71712a22.41536 22.41536 0 0 0-30.91456-6.84032l-57.28768 36.57216a22.38464 22.38464 0 0 0-9.49248 24.87296l13.42464 48.39936a43.63776 43.63776 0 0 0-2.93888-0.15872c-38.8096-1.12128-70.52288 29.02528-71.60832 67.712-1.024 38.36416 29.34784 70.46144 67.712 71.54688 0.64 0.03072 1.28 0.03072 1.92 0.03072 37.98016 0 68.57216-29.73184 69.66272-67.712a69.6832 69.6832 0 0 0-7.93088-34.23744l-22.69696-81.61792 43.35104-27.65312a22.39488 22.39488 0 0 0 6.79936-30.91456z m-22.47168 158.18752c0.23552 0.86016 0.3072 1.72032 0.44032 2.57536-0.13312-0.86016-0.2048-1.72032-0.44032-2.5856v0.01024z m-46.27968-28.3648a47.06816 47.06816 0 0 1-8.97024-3.2256 46.30016 46.30016 0 0 1 8.97024 3.2256z m-20.44416 67.55328h-0.67072a24.96512 24.96512 0 0 1-24.20224-25.60512 24.76544 24.76544 0 0 1 24.87296-24.20224h0.70144a24.81152 24.81152 0 0 1 19.43552 10.22976 24.8832 24.8832 0 0 1 4.7616 15.37536c0 0.15872 0 0.31744-0.03072 0.48128a24.75008 24.75008 0 0 1-24.86784 23.72096z m42.20416-3.58912z"
                    fill="#4F46A3"
                    p-id="1909"
                  ></path>
                  <path
                    d="M905.69728 403.59424a24.8832 24.8832 0 0 1 3.38944 13.29664c0 0.15872 0 0.31744-0.03072 0.48128-0.512-1.12128-0.95744-2.304-1.31072-3.54816l-3.42016-12.30848c0.47616 0.67072 0.95744 1.34144 1.37216 2.07872z"
                    fill="#FF4893"
                    p-id="1910"
                  ></path>
                  <path
                    d="M907.74528 413.824c0.35328 1.24928 0.79872 2.432 1.31072 3.54816a24.76032 24.76032 0 0 1-24.87296 23.72096h-0.67072a24.96512 24.96512 0 0 1-24.20224-25.60512 24.77056 24.77056 0 0 1 24.87296-24.20224h0.70144c7.80288 0.22528 14.8992 3.9936 19.43552 10.22976l3.42528 12.30848z"
                    fill="#FF4893"
                    p-id="1911"
                  ></path>
                  <path
                    d="M768.96768 237.76768a30.49984 30.49984 0 0 1-4.98688 42.74176 30.208 30.208 0 0 1-18.86208 6.5536 30.14656 30.14656 0 0 1-23.84896-11.54048c-10.38848-13.13792-8.18176-32.32256 4.95616-42.71104a30.208 30.208 0 0 1 18.86208-6.5536 29.7984 29.7984 0 0 1 7.89504 1.05472l12.0832 8.30976c1.24928 0.8704 2.56 1.57184 3.90144 2.14528z"
                    fill="#FFB578"
                    p-id="1912"
                  ></path>
                  <path
                    d="M768.96768 237.76768a22.3744 22.3744 0 0 1-3.90144-2.14016l-12.0832-8.30976a30.0544 30.0544 0 0 1 15.98464 10.44992z"
                    fill="#FFB578"
                    p-id="1913"
                  ></path>
                  <path
                    d="M650.07616 657.48992v315.40736H93.8752v-315.40736h180.59264c0.48128 0.03072 0.92672 0.03072 1.408 0.03072 0.256 0 0.512 0 0.768-0.03072h78.80192c0.48128 0.03072 0.92672 0.03072 1.408 0.03072 0.256 0 0.512 0 0.768-0.03072h292.4544z"
                    fill="#5FCEFF"
                    p-id="1914"
                  ></path>
                  <path
                    d="M598.7328 425.62048a31.54432 31.54432 0 0 1-19.94752 39.80288 32.44032 32.44032 0 0 1-9.97376 1.62816A31.4368 31.4368 0 0 1 538.95168 445.44l-1.62816-4.85888-112.37376-338.80576-1.792-5.4016c-5.46816-16.46592 3.51744-34.33472 19.94752-39.80288a32.52224 32.52224 0 0 1 9.97376-1.59744 31.5136 31.5136 0 0 1 29.92128 21.5808l115.73248 349.06624z"
                    fill="#FFB578"
                    p-id="1915"
                  ></path>
                  <path
                    d="M804.0704 210.05312a74.53184 74.53184 0 0 0-30.62784-23.01952l-79.63648-54.79424L711.68 75.65312a22.3744 22.3744 0 0 0-42.6752-13.46048l-22.85568 72.3456a22.35392 22.35392 0 0 0 8.63232 25.15968l49.36192 33.98144a70.4 70.4 0 0 0-5.6576 4.02944c-32.48128 25.7024-38.01088 73.08288-12.30848 105.59488a74.69056 74.69056 0 0 0 58.95168 28.5184 75.38688 75.38688 0 0 0 46.61248-16.20992c32.50176-25.7024 38.03136-73.04704 12.32896-105.55904zM694.2208 270.69952z m69.76 9.81504a30.18752 30.18752 0 0 1-18.86208 6.5536 30.14656 30.14656 0 0 1-23.84896-11.54048c-10.38848-13.13792-8.18688-32.32256 4.95616-42.71104a30.17728 30.17728 0 0 1 18.86208-6.5536 29.78304 29.78304 0 0 1 7.89504 1.05472 30.0032 30.0032 0 0 1 15.98464 10.45504 30.49984 30.49984 0 0 1-4.98688 42.74176zM672.45056 612.736H369.25952L280.00256 468.52096l220.71296 1.28a76.09344 76.09344 0 0 0 92.10368 38.10816c39.93088-13.2352 61.60384-56.45824 48.39936-96.38912l-115.75808-349.07136A76.12928 76.12928 0 0 0 453.08416 10.20928c-8.12032 0-16.17408 1.28-24.00768 3.87072-36.34688 12.05248-57.5744 48.97792-51.08736 85.61152l-296.09472 223.3344a76.1856 76.1856 0 0 0-48.49664 71.00416c0.01024 8.15616 1.31584 16.26112 3.87072 24.00768a75.7504 75.7504 0 0 0 38.13888 44.18048 75.81184 75.81184 0 0 0 54.44096 5.4016l16.04608 0.09728-4.6336-7.51104 4.6336 7.51104 89.76896 145.01376H71.5008a22.38464 22.38464 0 0 0-22.37952 22.37952v360.16128a22.38464 22.38464 0 0 0 22.37952 22.37952h600.95488a22.38464 22.38464 0 0 0 22.37952-22.37952v-360.16128a22.38464 22.38464 0 0 0-22.38464-22.3744z m-157.47584-187.5968l-6.36416-0.03072 6.36416 0.03072zM443.10528 56.57088a32.52224 32.52224 0 0 1 9.97376-1.59744 31.50848 31.50848 0 0 1 29.92128 21.5808l115.72736 349.07136a31.54432 31.54432 0 0 1-19.94752 39.80288 32.44032 32.44032 0 0 1-9.97376 1.62816 31.4368 31.4368 0 0 1-29.85984-21.61152l-1.62816-4.85888-112.36864-338.81088-1.792-5.4016c-5.46816-16.46592 3.51744-34.33984 19.94752-39.80288z m-32.09728 74.22976l-9.07776-27.39712 9.07776 27.39712zM126.74048 422.84032a21.7088 21.7088 0 0 0-7.16288 1.152 31.35488 31.35488 0 0 1-24.07424-1.75616 31.11936 31.11936 0 0 1-15.72864-18.22208 31.4624 31.4624 0 0 1 19.98336-39.8336c2.304-0.768 4.47488-1.92 6.4256-3.38944l285.96224-215.7568 92.83584 279.92064-243.7632-1.43872-80.9472-0.48128-33.53088-0.19456z m117.63712 3.4304a22.49216 22.49216 0 0 0-6.39488 0.02048c1.08032-0.15872 2.16064-0.256 3.24096-0.256 1.06496 0 2.11456 0.08704 3.15392 0.23552z m-86.72768-0.05632c0.86528-0.1024 1.73056-0.1792 2.59584-0.1792 0.18432 0 0.36864 0.03072 0.55296 0.03584a22.35392 22.35392 0 0 0-3.1488 0.14336z m41.088 41.8304l28.45184 0.15872-4.95616-7.99232 4.95616 7.99232 89.45152 144.53248h-28.35456l-89.5488-144.6912z m451.33824 504.85248H93.8752v-315.40736h180.59264c0.48128 0.03072 0.92672 0.03072 1.408 0.03072 0.256 0 0.512 0 0.768-0.03072h78.80192c0.48128 0.03072 0.92672 0.03072 1.408 0.03072 0.256 0 0.512 0 0.768-0.03072h292.4544v315.40736z"
                    fill="#4F46A3"
                    p-id="1916"
                  ></path>
                </svg>