<svg
                          t="1692258103267"
                          class="icon"
                          viewBox="0 0 1126 1024"
                          version="1.1"
                          xmlns="http://www.w3.org/2000/svg"
                          p-id="1852"
                          width="23"
                          height="23"
                        >
                          <path
                            d="M593.92 331.093333c-5.12-5.12-13.653333-5.12-18.773333 0L296.96 607.573333c-13.653333 13.653333-20.48 30.72-20.48 49.493334l1.706667 128c0 6.826667 6.826667 13.653333 13.653333 13.653333h153.6l298.666667-296.96c3.413333-3.413333 3.413333-6.826667 3.413333-10.24 0-3.413333-1.706667-6.826667-3.413333-10.24l-150.186667-150.186667zM851.626667 373.76l-150.186667-150.186667c-5.12-5.12-13.653333-5.12-18.773333 0l-51.2 51.2c-3.413333 3.413333-3.413333 6.826667-3.413334 10.24 0 3.413333 1.706667 6.826667 3.413334 10.24l150.186666 150.186667c3.413333 3.413333 6.826667 3.413333 10.24 3.413333 3.413333 0 6.826667-1.706667 10.24-3.413333l51.2-51.2c3.413333-3.413333 3.413333-6.826667 3.413334-10.24-1.706667-5.12-1.706667-8.533333-5.12-10.24z"
                            fill="#ffa500"
                            p-id="1853"
                          ></path>
                        </svg>