<svg width="30" height="30" viewBox="0 0 1024 1024" version="1.1" xmlns="http://www.w3.org/2000/svg">
          <path d="M0 0h1024v1024H0V0z" fill="#202425" opacity=".01"></path>
          <path
            d="M989.866667 512c0 263.918933-213.947733 477.866667-477.866667 477.866667S34.133333 775.918933 34.133333 512 248.081067 34.133333 512 34.133333s477.866667 213.947733 477.866667 477.866667z"
            fill="#74bdf0"
          ></path>
          <path
            d="M512 221.866667A51.2 51.2 0 0 1 563.2 273.066667v187.733333H750.933333a51.2 51.2 0 0 1 0 102.4h-187.733333V750.933333a51.2 51.2 0 0 1-102.4 0v-187.733333H273.066667a51.2 51.2 0 0 1 0-102.4h187.733333V273.066667A51.2 51.2 0 0 1 512 221.866667z"
            fill="#FFFFFF"
          ></path>
        </svg>