<svg viewBox="0 0 1024 1024" version="1.1" xmlns="http://www.w3.org/2000/svg" class="icon" width="50" height="50">
          <path
            d="M696.741825 447.714002c2.717387-214.485615-173.757803-312.227566-187.33574-320.371729-10.857551 5.430775-190.050127 103.168727-187.33274 320.371729-35.297037 24.435488-73.306463 65.1623-67.875688 135.752376 5.430775 70.589076 76.018851 119.460051 103.168726 116.745664 27.152875-2.716387 19.004713-21.7221 19.004713-21.7221l8.148162-38.011425s40.721814 59.732525 51.583363 59.732525h146.609927c13.574938 0 51.585363-59.732525 51.585363-59.732525l8.147162 38.011425s-8.147162 19.005713 19.004713 21.7221c27.148876 2.714388 97.738951-46.156588 103.168727-116.745664s-32.57965-111.316888-67.876688-135.752376z m-187.33574-2.713388c-5.426776 0-70.589076-2.717387-78.733239-78.737238 2.713388-73.306463 73.306463-78.733239 78.733239-81.450626 5.430775 0 76.02385 8.144163 78.736238 81.450626-8.143163 76.019851-73.305463 78.737238-78.736238 78.737238z m0 0"
            fill="#ec695c"
          ></path>
          <path
            d="M423.602441 746.060699c6.47054-6.297579 12.823107-7.017417 21.629121-2.784372 34.520213 16.582259 70.232157 19.645568 107.031855 9.116944 8.118169-2.323476 15.974396-5.475765 23.598677-9.22392 13.712907-6.73648 26.003134 0.8878 26.080116 16.13936 0.109975 22.574907-0.024994 45.142816 0.080982 67.709725 0.031993 7.464316-2.277486 13.322995-9.44387 16.608254-7.277358 3.333248-13.765895 1.961558-19.526595-3.264264-3.653176-3.313253-7.063407-6.897444-10.634601-10.304675-6.563519-6.259588-6.676494-6.25259-10.625603 1.603638-8.437097 16.80121-16.821205 33.623415-25.257302 50.423625-2.489438 4.953882-5.706713 9.196925-11.411426 10.775569-8.355115 2.315478-15.772442-1.070758-20.272427-9.867774-8.774021-17.15313-17.269104-34.453228-25.918153-51.669344-3.750154-7.469315-3.9891-7.479313-10.141712-1.514658-3.715162 3.602187-7.31435 7.326347-11.142486 10.800563-5.571743 5.060858-11.934308 6.269586-18.936728 3.207277-6.82746-2.984327-9.869774-8.483086-9.892769-15.685462-0.070984-23.506697-0.041991-47.018393-0.020995-70.532089 0.007998-4.679944 1.46467-8.785018 4.803916-11.538397z"
            fill="#ff416c"
          ></path>
        </svg>