<svg t="1717339073945" class="icon" viewBox="0 0 1163 1024" version="1.1" xmlns="http://www.w3.org/2000/svg" p-id="2022" id="mx_n_1717339073945" width="24" height="24"><path d="M332.301489 131.353512l32.040761 442.063029c1.524857 20.259482 19.241347 35.597196 39.383532 34.433612a2569.806002 2569.806002 0 0 1 341.980811 2.937109 36.21183 36.21183 0 0 0-0.473878 3.673732l-7.070644 93.912413c-1.48263 20.264174 9.1726 25.93195 24.027052 12.790029a2362.143963 2362.143963 0 0 1 117.010474-96.79791 2562.782277 2562.782277 0 0 1 118.469645 18.002694c19.949819 3.500133 39.383533-9.669938 43.240247-29.615065l83.055432-435.372426c3.852023-19.945127-12.635198-40.049778-36.718552-44.281842A3085.127844 3085.127844 0 0 0 373.730676 91.632165c-24.313255 1.40756-42.954044 19.466557-41.429187 39.721347z m461.754795 222.098914c2.566451-31.501196 33.363867-54.693095 68.717086-50.864531 35.343835 3.809796 60.506318 33.04482 56.278946 64.367725-4.22268 31.351056-34.898108 53.093168-68.581022 49.466355-33.692298-3.654964-58.981462-31.449585-56.41501-62.969549z m-271.199303-10.162584c-0.464495-31.599725 27.930685-57.639588 63.424659-57.212628 35.50805 0.398809 63.312055 27.090841 62.106245 58.67649-1.201118 31.604417-29.596298 56.194493-63.438735 55.814452-33.828362-0.403501-61.627675-25.655129-62.092169-57.278314z" fill="#1296db" p-id="2023"></path><path d="M703.475097 699.430708l-3.551743 58.230763c-1.318415 21.493443-6.362172 47.162648-11.119725 57.062488-4.813856 9.820078-43.057265 16.201017-62.57074 15.698987a2343.625164 2343.625164 0 0 0-245.037453 5.132903c-19.522859 1.431019-35.386062 3.425063-35.278148 4.086616 0.103221 0.666245 1.857979 20.015505 3.758185 41.466722l1.398176 15.797516c1.890822 21.455908 1.651537 44.85425-0.502029 52.004656-2.120724 7.117562-29.497769-11.527918-44.530511-25.143716a2194.733452 2194.733452 0 0 0-53.39814-47.275254c-15.516005-13.376513-44.413214-21.878176-63.82816-18.781544l-6.793824 1.074438c-19.368027 3.073173-43.282474 3.509517-53.262075 0.717856-9.904532-2.829196-25.232861-42.330025-29.314786-63.480963L31.069544 437.591679c-4.081924-21.146245-2.876115-63.818777 7.450685-70.354547 10.242346-6.549847 38.018199-15.276719 61.679285-19.030213a2859.08307 2859.08307 0 0 1 192.896733-24.219418l3.556436 38.998799 24.069278 264.077049c2.017503 21.446525 20.747436 37.398873 41.649705 35.822406a2517.074108 2517.074108 0 0 1 343.482208-2.542992l-2.378777 39.087945z" fill="#1296db" p-id="2024"></path></svg>