<svg t="1717338944683" class="icon" viewBox="0 0 1113 1024" version="1.1" xmlns="http://www.w3.org/2000/svg" p-id="1919" width="24" height="24"><path d="M1078.426097 838.720621c-14.301204 67.52435-91.488932 138.69235-165.202019 152.203185-237.662447 40.527534-475.319922 40.527534-712.972428 0-73.713087-13.510835-150.900816-84.678835-165.211961-152.203185-42.943379-217.808777-42.943379-435.622524 0-653.441242C49.340893 117.76 126.533592 46.572117 200.25165 33.071223c237.647534-40.527534 475.309981-40.527534 712.972428 0 73.703146 13.500893 150.890874 84.678835 165.202019 152.208156 42.95332 217.808777 42.95332 435.627495 0 653.441242z" fill="#F8C51C" p-id="1920"></path><path d="M612.655223 409.356427L536.854369 176.063379 458.404039 417.503689H204.536544l205.386563 149.225631-78.45033 241.43534L536.854369 658.948971l205.381592 149.215689-78.45033-241.43534zM889.055689 417.503689h-203.83565l38.807611 119.897476z" fill="#FFFFFF" p-id="1921"></path></svg>