<svg
                t="1691917837446"
                class="icon"
                viewBox="0 0 1024 1024"
                version="1.1"
                xmlns="http://www.w3.org/2000/svg"
                p-id="1480"
                width="28"
                height="28"
              >
                <path
                  d="M936.96 384.512c-6.144-39.424-20.48-77.824-42.496-114.176-23.552-36.352-51.2-62.976-81.92-80.384-84.992-44.032-159.232-30.72-225.28 39.424-18.944 22.016-36.352 46.592-49.664 76.288-13.824 30.208-22.528 58.368-25.088 83.968-0.512 4.096-1.024 8.192-1.024 12.288 0 4.608-1.536 7.168-4.096 7.168-6.144 0-8.704-3.072-11.776-7.168-1.536-4.096-3.072-8.192-4.096-12.288-4.096-14.336-5.632-30.208-4.608-46.08 0-26.624 5.632-49.664 17.408-73.216 27.648-49.664 26.112-95.232-6.144-136.192-29.184-39.424-70.144-55.808-119.808-49.664-40.96 6.144-78.848 20.48-114.176 42.496-37.888 23.552-64.512 49.664-80.384 81.92-44.032 84.992-30.72 160.768 39.424 225.28 22.016 18.944 46.592 36.352 76.288 51.2 17.408 8.192 34.816 14.336 51.712 18.432 15.36 4.096 30.208 6.144 45.056 7.68 4.608 0 7.168 1.536 7.168 6.144 0 4.096-3.072 7.168-7.168 8.704-15.36 5.12-30.208 8.704-45.056 9.728-30.208 2.56-58.88-3.584-85.504-18.432h-1.536c-49.664-27.648-95.232-25.088-136.192 5.632-39.424 30.72-55.808 70.144-48.128 119.808 5.632 39.424 20.48 77.312 42.496 114.176 23.552 37.888 51.2 64.512 83.456 80.384 84.992 45.056 159.232 32.256 223.744-37.888 20.48-20.48 36.864-46.592 51.2-76.288 9.728-20.48 16.896-40.96 21.504-60.416 2.56-12.288 4.608-24.576 5.12-36.352 0-4.096 1.536-7.168 5.632-7.168 4.608 0 7.168 3.072 8.704 7.168 4.096 12.288 7.168 24.576 8.704 36.352 4.608 33.28-1.536 65.024-17.408 95.232-27.648 49.664-25.088 95.232 5.632 136.192 30.72 39.424 70.144 55.808 119.808 49.664 39.424-5.632 77.312-20.48 114.176-42.496 37.888-23.552 64.512-51.2 80.384-81.92 45.568-84.992 32.256-159.232-37.888-225.28-20.48-18.944-46.592-36.352-75.776-51.2-8.192-4.096-16.384-7.168-24.064-10.24-25.088-9.216-49.152-13.824-72.192-15.872-4.608 0-7.168-1.536-7.168-4.608 0-4.608 3.072-8.704 7.168-10.24 18.944-7.168 37.888-10.24 58.368-10.24 4.608 0 9.216 0.512 13.824 0.512 20.992 2.048 39.936 8.704 57.856 18.432 49.664 27.648 95.232 26.624 137.216-5.632 36.352-31.744 52.224-71.168 46.592-120.832z m-72.704 89.6c-14.848 10.752-29.184 16.384-44.032 16.384-14.336 0-30.208-5.12-47.104-14.336l-0.512-0.512c-25.6-13.824-50.688-21.504-76.8-23.04-4.608-0.512-9.216-0.512-13.824-0.512-26.624 0-50.176 4.096-72.704 12.8-4.096 1.536-8.192 3.584-11.776 6.144-13.824 9.216-22.016 25.088-22.016 42.496 0 17.92 9.728 32.768 25.088 39.936 6.144 3.072 13.312 5.12 20.48 5.12 27.136 2.56 51.712 9.216 75.264 19.456 2.048 1.024 4.096 2.048 6.144 2.56 26.112 13.312 49.152 28.672 66.048 44.032 57.344 53.76 66.56 108.032 29.696 176.64-13.312 25.088-35.328 47.104-65.024 65.536-32.768 19.456-65.536 32.256-98.304 36.864-4.608 0.512-9.216 1.024-13.824 1.024-28.16 0-49.152-10.752-68.096-34.816-20.992-28.16-22.016-56.32-2.56-91.136l0.512-0.512c19.456-36.352 27.136-74.752 22.528-114.688-1.536-16.384-5.632-32.768-11.264-49.152-1.536-5.12-4.096-9.728-7.168-13.824-9.216-13.312-24.064-21.504-40.448-21.504-17.408 0-31.744 8.704-39.936 22.528-4.096 7.168-6.656 15.36-6.656 24.576-0.512 12.288-2.56 24.576-6.144 37.888-3.584 13.824-9.216 27.648-15.872 42.496-14.848 29.696-28.672 50.176-43.52 65.024l-1.024 1.536c-31.744 34.304-64 51.2-99.328 51.2-23.04 0-48.128-7.168-75.264-21.504l-1.024-0.512c-26.112-12.8-47.616-34.304-66.56-65.024-19.456-32.768-32.256-66.048-36.864-98.816-5.12-34.816 5.12-59.904 32.768-81.408 14.848-11.264 29.696-16.384 45.056-16.384 14.336 0 29.696 4.608 46.08 13.824l2.56 0.512c28.672 15.36 58.88 23.552 91.136 23.552 4.096 0 8.704 0 12.8-0.512 18.944-1.024 38.4-5.12 57.856-11.776 6.656-2.048 12.288-5.632 17.408-9.728 11.264-9.216 17.92-23.04 17.92-37.888 0-16.384-7.68-30.208-20.48-38.4-7.168-4.608-15.872-7.68-25.6-8.192-16.896-1.536-32.256-4.608-47.616-9.216-11.776-3.584-22.528-7.68-33.792-12.8-23.552-11.776-45.568-26.624-66.56-45.056-56.32-51.712-65.536-107.52-30.208-176.128v-0.512c12.288-24.576 33.28-45.568 65.536-65.536 30.72-19.456 64-31.744 97.792-36.352 4.608-0.512 9.728-1.024 13.824-1.024 28.672 0 50.176 10.752 67.584 34.304l0.512 1.024c21.504 27.648 22.528 54.784 2.56 90.624l-1.024 1.536C452.608 281.088 445.44 310.272 445.44 342.016c-1.024 16.384 0 32.256 3.584 47.616 2.048 9.728 4.608 18.944 8.704 28.16l3.584 7.168c1.536 2.56 3.072 4.608 5.12 6.656 13.312 15.36 29.184 18.944 40.96 18.944 17.408 0 32.256-9.728 39.936-24.576 3.584-6.656 5.12-14.336 5.632-22.528 0.512-4.608 0.512-9.216 1.536-13.824 3.072-20.48 10.24-43.008 21.504-67.584 10.24-22.016 24.064-43.52 43.008-65.536 32.768-34.304 65.536-51.2 101.376-51.2 22.528 0 47.616 6.656 73.728 20.48 25.6 14.848 48.128 36.864 66.56 66.048 19.456 32.256 31.744 65.536 36.864 97.792 2.56 34.816-7.168 60.928-33.28 84.48z"
                  p-id="1481"
                ></path>
                <path
                  d="M896.512 389.632c-5.12-32.256-17.408-65.536-36.864-97.792-18.432-29.184-40.96-51.2-66.56-66.048-26.112-13.312-51.2-20.48-73.728-20.48-35.84 0-69.12 16.896-101.376 51.2-18.944 22.016-32.768 43.008-43.008 65.536-11.264 24.576-18.432 47.104-21.504 67.584l-1.536 13.824c0 8.192-2.048 15.872-5.632 22.528-7.68 14.848-22.016 24.576-39.936 24.576-11.776 0-27.648-3.584-40.96-18.944-1.536-2.048-3.584-4.096-5.12-6.656l-3.584-7.168c-3.584-8.704-6.656-18.432-8.704-28.16-3.072-15.36-4.608-31.232-3.584-47.616 0-31.744 7.168-60.928 22.016-90.112l1.024-1.536c19.968-35.84 19.456-62.976-2.56-90.624V158.72c-17.408-23.552-38.912-34.304-67.584-34.304-4.608 0-9.216 0-13.824 1.024-33.792 5.12-66.56 17.408-97.792 36.352-32.256 19.968-53.248 40.96-65.536 65.536v0.512c-35.328 68.096-25.6 124.416 30.208 176.128 21.504 18.432 43.008 33.28 66.56 45.056 10.752 5.12 22.016 9.728 33.792 12.8 15.36 4.608 30.72 7.68 47.616 9.216 9.728 0.512 18.432 3.584 25.6 8.192 12.288 8.192 20.48 22.016 20.48 38.4 0 14.848-6.656 28.672-17.92 37.888-5.12 4.096-10.752 7.68-17.408 9.728-19.456 6.656-38.912 10.752-57.856 11.776-4.096 0.512-8.704 0.512-12.8 0.512-32.256 0-62.464-7.68-91.136-23.552l-2.56-0.512c-16.384-9.216-32.256-13.824-46.08-13.824-15.36 0-30.208 5.632-45.056 16.384-27.648 21.504-37.888 46.592-32.768 81.408 5.12 32.768 17.408 66.048 36.864 98.816 18.944 30.72 40.448 51.712 66.56 65.024l1.024 0.512c26.624 14.336 52.224 21.504 75.264 21.504 35.328 0 67.584-16.896 99.328-51.2l1.024-1.536c14.848-14.848 28.672-35.328 43.52-65.024 6.656-14.336 12.288-28.672 15.872-42.496 3.584-12.8 5.632-25.6 6.144-37.888 0-9.216 2.56-17.408 6.656-24.576 8.192-13.824 22.528-22.528 39.936-22.528 16.384 0 31.232 8.192 40.448 21.504 3.072 4.096 5.12 8.704 7.168 13.824 5.632 16.384 9.216 33.28 11.264 49.152 4.608 39.936-3.072 78.336-22.528 114.688l-0.512 0.512c-19.456 34.816-18.432 62.976 2.56 91.136 18.944 24.064 39.936 34.816 68.096 34.816 4.608 0 9.216 0 13.824-1.024 32.768-5.12 66.048-17.408 98.304-36.864 30.208-18.432 52.224-40.96 65.024-65.536 36.864-68.608 27.136-122.88-29.696-176.64-16.896-15.872-39.936-31.232-66.048-44.032-2.048-1.024-4.096-2.048-6.144-2.56-23.552-10.24-48.128-16.896-75.264-19.456-7.68-0.512-14.336-2.048-20.48-5.12-15.36-7.68-25.088-22.016-25.088-39.936 0-17.408 8.704-33.28 22.016-42.496 3.584-2.56 7.68-4.608 11.776-6.144 22.528-8.704 46.08-12.8 72.704-12.8 4.608 0 9.216 0 13.824 0.512 26.112 2.048 51.712 9.728 76.8 23.04l0.512 0.512c16.896 9.728 33.28 14.336 47.104 14.336 14.848 0 29.696-5.12 44.032-16.384 27.648-22.528 37.376-48.64 33.792-83.456z m-384.512 179.2c-29.696 0-54.272-24.576-54.272-54.272s24.576-54.272 54.272-54.272 54.272 24.576 54.272 54.272-24.576 54.272-54.272 54.272z"
                  fill="#FFB208"
                  p-id="1482"
                ></path>
                <path
                  d="M397.312 165.376c15.872 0 25.088 4.608 34.816 17.92 0 0.512 0.512 0.512 0.512 1.024l1.024 1.024c8.704 11.264 13.312 19.968-1.024 45.568 0 0-0.512 0.512-0.512 1.024l-1.024 1.536c0 0.512-0.512 0.512-0.512 1.024-17.408 34.304-25.6 69.632-26.112 107.008-1.024 19.456 0.512 38.912 4.096 57.344 2.56 12.288 6.144 23.552 10.752 34.816-5.632-1.536-11.776-2.56-17.92-2.56-13.824-1.536-26.624-4.096-38.912-7.68-9.728-3.072-18.432-6.144-27.648-10.752-19.968-10.24-38.912-23.04-57.344-38.912-41.984-39.936-48.128-75.264-21.504-126.976 0.512-0.512 0.512-1.024 1.024-1.536 8.704-17.92 24.576-33.28 50.176-49.152 26.112-16.384 53.248-26.624 81.408-30.72h8.704m322.048 80.896c15.872 0 34.304 5.12 54.272 15.36 19.456 11.264 36.864 28.672 51.712 51.712 16.384 27.648 26.624 54.784 30.72 81.408 2.048 20.48-2.56 33.28-17.408 47.104-9.216 6.144-14.848 7.168-18.432 7.168-4.096 0-12.8-1.024-27.136-9.216l-0.512-0.512c-0.512 0-0.512-0.512-1.024-0.512-30.72-16.384-60.928-25.6-93.184-28.16-5.632-0.512-11.264-0.512-17.408-0.512-31.232 0-59.904 5.12-87.04 15.36l-4.608 1.536c2.048-7.168 3.072-14.848 3.584-22.528 0-3.072 0.512-6.144 1.024-9.216 2.56-16.384 8.704-35.328 17.92-56.32 8.192-18.432 19.968-36.352 35.84-54.784 32.768-33.792 56.32-37.888 71.68-37.888M197.632 580.096c4.608 0 13.312 1.536 26.112 8.704 2.56 1.536 5.12 2.56 7.68 3.072 33.28 17.408 69.12 26.112 106.496 26.112 5.12 0 10.24 0 15.36-0.512 22.528-1.536 45.568-6.144 68.096-13.824 2.048-0.512 4.608-1.536 6.656-2.56-2.048 7.168-3.072 14.848-3.584 23.04-0.512 9.216-2.048 18.432-5.12 28.672-3.072 10.752-7.168 22.528-13.312 34.816-12.8 25.088-24.064 43.008-35.328 54.272l-0.512 0.512-1.024 1.536-0.512 0.512c-31.232 33.792-54.272 37.888-69.12 37.888-16.384 0-34.816-5.632-56.32-16.896l-1.024-0.512-0.512-0.512c-18.944-9.216-35.328-25.6-50.176-49.664-16.896-28.16-27.648-56.32-31.744-83.456-3.072-19.968 1.024-30.72 16.896-43.008 11.264-7.168 17.408-8.192 20.992-8.192m399.36 15.872c6.144 1.536 12.8 2.56 19.456 3.072 22.016 2.56 42.496 7.68 61.44 15.872 1.536 0.512 3.072 1.536 5.12 2.048 22.528 11.264 41.984 24.064 55.808 37.376 43.52 40.96 49.664 75.264 21.504 127.488v0.512c-9.728 18.432-26.624 35.328-50.176 49.664-27.648 16.384-55.296 27.136-82.432 31.232-3.072 0.512-5.632 0.512-8.704 0.512-13.312 0-23.04-3.072-35.84-18.944-9.728-13.312-12.288-23.552 0.512-46.08v-0.512c0-0.512 0.512-1.024 0.512-1.536 23.552-43.52 32.768-90.112 27.136-138.24-2.048-18.944-6.656-38.4-13.312-57.856 0.512-1.024 0-3.072-1.024-4.608m-199.68-471.552c-4.608 0-9.216 0-13.824 1.024-33.792 5.12-66.56 17.408-97.792 36.352-32.256 19.968-53.248 40.96-65.536 65.536-35.328 68.096-25.6 124.416 30.208 176.128 21.504 18.432 43.008 33.28 66.56 45.056 10.752 5.12 22.016 9.728 33.792 12.8 14.848 4.608 30.72 7.68 47.616 9.216 9.728 0.512 18.432 3.584 25.6 8.192 12.288 8.192 19.968 22.016 19.968 38.4 0 14.848-6.656 28.672-17.92 37.888-5.12 4.096-10.752 7.68-17.408 9.728-19.456 6.656-38.912 10.752-57.856 11.776-4.096 0.512-8.704 0.512-12.8 0.512-32.256 0-62.464-7.68-91.136-23.552l-2.56-0.512c-16.384-9.216-32.256-13.824-46.08-13.824-15.36 0-30.208 5.632-45.056 16.384-27.648 21.504-37.888 46.592-32.768 81.408 5.12 32.768 17.408 66.048 36.864 98.816 18.944 30.72 40.448 51.712 66.56 65.024l1.024 0.512c26.624 14.336 52.224 21.504 75.264 21.504 35.328 0 67.584-16.896 99.328-51.2l1.024-1.536c14.848-14.848 28.672-35.328 43.52-65.024 6.656-14.336 12.288-28.672 15.872-42.496 3.584-12.8 5.632-25.6 6.144-37.888 0-9.216 2.56-17.408 6.656-24.576 8.192-13.824 22.528-22.528 39.936-22.528 16.384 0 31.232 8.192 40.448 21.504 3.072 4.096 5.12 8.704 7.168 13.824 5.632 16.384 9.216 33.28 11.264 49.152 4.608 39.936-3.072 78.336-22.528 114.688l-0.512 0.512c-19.456 34.816-18.432 62.976 2.56 91.136 18.944 24.064 39.936 34.816 68.096 34.816 4.608 0 9.216 0 13.824-1.024 32.768-5.12 66.048-17.408 98.304-36.864 30.208-18.432 52.224-40.96 65.024-65.536 36.864-68.608 27.136-122.88-29.696-176.64-16.896-15.872-39.936-31.232-66.048-44.032-2.048-1.024-4.096-2.048-6.144-2.56-23.552-10.24-48.128-16.896-74.752-19.456-7.68-0.512-14.848-2.048-20.48-5.12-15.36-7.68-25.088-22.016-25.088-39.936 0-17.408 8.704-33.28 22.016-42.496 3.584-2.56 7.68-4.608 11.776-6.144 22.528-8.704 46.08-12.8 72.704-12.8 4.608 0 9.216 0 13.824 0.512 26.112 2.048 51.712 9.728 77.312 23.04l0.512 0.512c16.896 9.728 33.28 14.336 47.104 14.336 14.848 0 29.696-5.12 44.032-16.384 26.112-23.552 35.84-49.664 32.256-84.48-4.608-32.256-17.408-65.536-36.864-97.792-18.432-29.184-40.96-51.2-66.56-66.048-26.112-13.312-51.2-20.48-73.728-20.48-35.84 0-68.608 16.896-101.376 51.2-18.944 22.016-32.768 43.008-43.008 65.536-11.264 24.576-18.432 47.104-21.504 67.584l-1.536 13.824c0 8.192-2.048 15.872-5.632 22.528-7.68 14.848-22.016 24.576-39.936 24.576-11.776 0-27.648-3.584-40.96-18.944-1.536-2.048-3.584-4.096-5.12-6.656l-3.584-7.168c-3.584-8.704-6.656-18.432-8.704-28.16-3.072-15.36-4.608-31.232-3.584-47.616 0-31.744 7.168-60.928 22.016-90.112l1.024-1.536c19.968-35.84 19.456-62.976-2.56-90.624l1.024 0.512c-16.896-23.552-38.4-34.304-67.584-34.304z m114.688 444.416c-29.696 0-54.272-24.576-54.272-54.272s24.576-54.272 54.272-54.272 54.272 24.576 54.272 54.272-24.576 54.272-54.272 54.272z"
                  fill="#FFFFFF"
                  p-id="1483"
                ></path>
                <path
                  d="M606.72 504.32c-1.024-11.776-4.608-22.528-9.728-32.768 0-0.512-0.512-1.024-0.512-1.536-1.024-2.048-2.048-4.096-3.072-5.632-6.144-9.728-13.824-18.432-22.528-25.6-7.168-5.632-15.36-10.24-24.064-13.824-10.752-4.096-22.528-6.656-34.816-6.656-16.896 0-32.256 4.096-46.08 11.776-3.584 2.048-6.656 4.096-9.728 6.144-9.216 6.656-17.408 14.848-23.552 24.576-1.536 2.048-3.072 4.608-4.096 6.656-1.536 3.072-3.072 6.656-4.608 9.728-3.072 7.168-5.12 14.848-6.144 22.528-0.512 4.096-1.024 8.704-1.024 13.312 0 14.848 3.072 28.672 9.216 40.96 9.728 20.48 26.112 36.352 46.592 46.08h0.512c5.632 2.56 11.776 4.608 18.432 6.144 4.608 1.024 9.728 2.048 14.848 2.048h8.192c6.144 0 12.288-1.024 17.92-2.048 5.12-1.024 10.24-2.56 15.36-4.608 2.048-0.512 3.584-1.536 5.632-2.56 20.48-9.728 36.352-26.624 45.568-47.104 5.12-11.776 8.192-24.576 8.192-38.4 0-2.56 0-5.632-0.512-9.216zM512 568.832c-29.696 0-54.272-24.576-54.272-54.272s24.576-54.272 54.272-54.272 54.272 24.576 54.272 54.272-24.576 54.272-54.272 54.272z"
                  p-id="1484"
                ></path>
                <path
                  d="M512 514.56m-54.272 0a54.272 54.272 0 1 0 108.544 0 54.272 54.272 0 1 0-108.544 0Z"
                  fill="#FFFFFF"
                  p-id="1485"
                ></path>
              </svg>