<svg viewBox="0 0 1024 1024" width="40" height="40" version="1.1" xmlns="http://www.w3.org/2000/svg">
              <path
                d="M399.502 655.103c0 7.902-6.665 14.311-14.88 14.311H72.188c-8.215 0-14.875-6.407-14.875-14.311v-28.634c0-7.913 6.66-14.315 14.875-14.315h312.435c8.217 0 14.88 6.402 14.88 14.315l-0.001 28.634zM968.167 655.103c0 7.902-6.664 14.311-14.882 14.311H640.851c-8.216 0-14.877-6.407-14.877-14.311v-28.634c0-7.913 6.661-14.315 14.877-14.315h312.436c8.218 0 14.882 6.402 14.882 14.315l-0.002 28.634z"
                fill="#EA0606"
              ></path>
              <path
                d="M968.097 624.008c0 11.563-17.723 20.937-39.583 20.937H97.263c-21.858 0-39.579-9.372-39.579-20.937v-41.876c0-11.562 17.72-20.935 39.579-20.935h831.25c21.86 0 39.583 9.373 39.583 20.935v41.876zM855.003 526.553h-12c0-161.793-151.025-293.421-336.66-293.421-185.633 0-336.656 131.628-336.656 293.421h-12c0-41.334 9.261-81.425 27.527-119.161 17.612-36.384 42.807-69.046 74.886-97.079 65.813-57.509 153.264-89.181 246.243-89.181 92.981 0 180.434 31.672 246.247 89.181 32.079 28.032 57.274 60.693 74.887 97.079 18.264 37.734 27.526 77.826 27.526 119.161z"
                fill="#EA0606"
              ></path>
              <path
                d="M1001.996 588.091c-121.146 13.91-980.875 0-980.875 0s-30.62-203.887 241.944-144.555c171.281-1.178 273.436 0 489.644 0 193.07-59.332 283.186 108.642 249.287 144.555z"
                fill="#EA0606"
              ></path>
              <path d="M500.343 214.379h12v330.342h-12z" fill="#EA0606"></path>
              <path
                d="M333.217 657.192c0 46.174-38.961 83.602-87.029 83.602-48.056 0-87.021-37.428-87.021-83.602 0-46.172 38.963-83.588 87.021-83.588 48.067 0 87.029 37.417 87.029 83.588z"
                fill="#FFFFFF"
              ></path>
              <path
                d="M246.188 743.794c-49.638 0-90.021-38.85-90.021-86.602 0-47.745 40.383-86.588 90.021-86.588 49.642 0 90.029 38.843 90.029 86.588 0 47.752-40.387 86.602-90.029 86.602z m0-167.19c-46.329 0-84.021 36.151-84.021 80.588 0 44.444 37.692 80.602 84.021 80.602 46.333 0 84.029-36.157 84.029-80.602 0-44.436-37.696-80.588-84.029-80.588z"
                fill="#440A0A"
              ></path>
              <path
                d="M309.872 656.757c0 33.159-27.986 60.035-62.491 60.035-34.51 0-62.487-26.876-62.487-60.035 0-33.16 27.977-60.022 62.487-60.022 34.505 0.001 62.491 26.862 62.491 60.022z"
                fill="#440A0A"
              ></path>
              <path
                d="M271.322 657.558c0 11.747-9.918 21.282-22.151 21.282-12.237 0-22.152-9.535-22.152-21.282 0-11.758 9.916-21.277 22.152-21.277 12.233-0.002 22.151 9.519 22.151 21.277z"
                fill="#FFFFFF"
              ></path>
              <path
                d="M875.521 642.811c0 46.175-38.963 83.603-87.027 83.603-48.061 0-87.021-37.428-87.021-83.603 0-46.173 38.962-83.587 87.021-83.587 48.066 0 87.027 37.414 87.027 83.587z"
                fill="#FFFFFF"
              ></path>
              <path
                d="M788.494 729.413c-49.638 0-90.021-38.85-90.021-86.603 0-47.744 40.384-86.587 90.021-86.587 49.642 0 90.027 38.843 90.027 86.587 0 47.753-40.385 86.603-90.027 86.603z m0-167.189c-46.33 0-84.021 36.151-84.021 80.587 0 44.444 37.691 80.603 84.021 80.603 46.333 0 84.027-36.158 84.027-80.603 0-44.436-37.694-80.587-84.027-80.587z"
                fill="#440A0A"
              ></path>
              <path
                d="M852.174 642.374c0 33.159-27.979 60.037-62.486 60.037-34.512 0-62.487-26.878-62.487-60.037 0-33.161 27.977-60.023 62.487-60.023 34.506-0.001 62.486 26.862 62.486 60.023z"
                fill="#440A0A"
              ></path>
              <path
                d="M813.628 643.173c0 11.75-9.919 21.278-22.153 21.278-12.233 0-22.151-9.528-22.151-21.278 0-11.759 9.919-21.275 22.151-21.275 12.235-0.002 22.153 9.516 22.153 21.275z"
                fill="#FFFFFF"
              ></path>
              <path
                d="M518.135 469.838h56.847v12.556h-56.847z"
                fill="#FFFFFF"
              ></path>
              <path
                d="M522.818 468.694c0 7.902-0.648 14.309-1.445 14.309h-30.37c-0.799 0-1.446-6.406-1.446-14.309V440.06c0-7.912 0.647-14.315 1.446-14.315h30.37c0.797 0 1.445 6.403 1.445 14.315v28.634z"
                fill="#EA0606"
              ></path>
            </svg>