<svg
            viewBox="0 0 1024 1024"
            width="16"
            height="16"
            version="1.1"
            xmlns="http://www.w3.org/2000/svg"
          >
            <path
              d="M512 63.9C264.5 63.9 63.9 264.5 63.9 512c0 247.5 200.7 448.2 448.2 448.2S960.2 759.6 960.2 512c0-247.5-200.6-448.1-448.2-448.1z m179.5 618.2c-7.8 9.5-19.1 14.5-30.6 14.5-8.8 0-17.6-2.9-25-8.9l-155-126.8a39.34 39.34 0 0 1-14.5-30.5V345.2c0-21.8 17.7-39.5 39.5-39.5s39.5 17.7 39.5 39.5v166.4l140.6 115c16.8 13.8 19.3 38.7 5.5 55.5z"
              fill="#6C8CFF"
              p-id="1035"
            ></path>
          </svg>