<svg t="1717338539860" class="icon" viewBox="0 0 1138 1024" version="1.1" xmlns="http://www.w3.org/2000/svg" p-id="1888" width="24" height="24"><path d="M355.292816 933.627663l13.699565-205.846028 14.740616-221.465938 3.351272-50.368611c1.704669-25.225782 12.073701-64.296295 22.198024-85.872178A2938.044546 2938.044546 0 0 0 528.65474 278.387778a186.862404 186.862404 0 0 1 55.851755-7.892908c24.927153 0.464533 84.491022 5.188664 106.709784 13.853027-0.282038 0.199085 61.077747 52.409237 71.479961 86.241315 9.245029 20.771245 16.308414 63.504101 17.718602 87.44827l1.936936 33.039885 12.670957 216.161141 13.127195 223.979392" fill="#CC8B25" p-id="1889"></path><path d="M391.401934 935.514827a3590.629959 3590.629959 0 0 1-72.209941-4.135171l36.565355-477.722053c2.160906-27.863663 13.77837-70.459648 25.541001-95.009368a27.826335 27.826335 0 0 1 8.846858-10.464428 2918.915756 2918.915756 0 0 0 119.21069-90.911527 29.709351 29.709351 0 0 1 10.12847-5.300649 218.388409 218.388409 0 0 1 65.134113-9.128896c20.028823 0.472828 87.81326 4.354994 118.124016 16.1591 3.152186 1.256727 6.055515 3.015315 8.573115 5.201106 10.746465 9.74689 66.701911 58.029252 80.268753 97.332032 11.03265 25.308734 18.490058 70.185905 20.165694 94.553131l32.43848 472.504357c-24.027121 1.874721-48.070833 3.508881-72.126988 4.902478l-23.015104-473.819149c-1.177922-23.97735-7.805807-62.736793-14.76965-78.771465a24.570459 24.570459 0 0 1-1.153036-3.23099c-4.831969-16.727323-36.270875-49.460284-57.979481-69.418597-18.651815-5.064235-64.682023-9.734447-90.758065-10.103585a155.166346 155.166346 0 0 0-40.895463 5.051792 2952.714653 2952.714653 0 0 1-108.613539 84.076261c-7.892907 19.94587-15.34202 51.023934-16.461876 70.633848l-27.013402 477.601773z" fill="#CC8B25" p-id="1890"></path><path d="M926.991482 948.778893a3652.827562 3652.827562 0 0 1-688.644759 4.230565c-20.095184-1.775178-34.997558-15.8107-33.313627-31.123687 1.688078-15.317134 19.033396-26.105076 38.76359-24.338193a3597.058759 3597.058759 0 0 0 678.217661-3.438371c19.692866-1.961821 36.901312 8.469426 38.456666 23.541851s-13.429971 29.107947-33.479531 31.127835z" fill="#99681C" p-id="1891"></path><path d="M478.52669 298.234105c80.629595 81.782631 167.978322 159.774344 261.718521 233.149764a3156.652779 3156.652779 0 0 1-44.172077 40.712968c-93.77338-74.657032-181.113812-153.884734-261.701931-236.853582a2947.874389 2947.874389 0 0 0 44.155487-37.00915z" fill="#754700" p-id="1892"></path><path d="M712.041444 299.652589a2664.136191 2664.136191 0 0 0 44.147191 37.195792c-80.733285 81.47156-168.094455 160.234729-261.954935 235.46828a2866.564586 2866.564586 0 0 1-44.138896-40.895464c93.819004-73.956086 181.188469-151.487413 261.94664-231.768608z" fill="#754700" p-id="1893"></path><path d="M496.697382 235.584412c21.886953 22.434438 21.331173 57.66841-2.679358 78.369146a2969.728161 2969.728161 0 0 1-36.283317 30.696483c-24.466768 20.447732-63.545577 17.988197-85.395202-5.491439A2669.97603 2669.97603 0 0 1 256.737238 206.970031c-19.94587-24.42944-15.163673-59.680002 9.178668-78.389884a2775.350283 2775.350283 0 0 0 36.12156-28.28672c23.906841-18.975329 58.680427-15.346168 78.717545 8.087846A2579.856697 2579.856697 0 0 0 496.697382 235.584412z" fill="#95DF00" p-id="1894"></path><path d="M413.504563 367.627817c-19.029248-1.206955-36.432632-9.240882-48.77178-22.492505a2677.338043 2677.338043 0 0 1-115.581529-132.495494c-23.326175-28.647562-17.540255-69.634273 10.924813-91.446569a2799.352519 2799.352519 0 0 0 36.117413-28.216211c13.492185-10.713284 30.273427-15.565991 47.498463-13.786665 17.220889 1.787621 32.811766 9.991599 44.122306 23.218337a2573.137564 2573.137564 0 0 0 115.958961 126.92525c25.603214 26.163142 25.180158 67.133262-2.907477 91.421683a2980.968192 2980.968192 0 0 1-36.287465 30.779436c-13.815699 11.538659-32.044457 17.307989-51.073705 16.092738zM342.003864 97.680431c-12.401363-1.277465-24.458473 2.218973-34.085083 9.900352a2745.83587 2745.83587 0 0 1-36.134003 28.369672c-20.344041 15.682124-24.159845 44.972567-7.494737 65.329051A2665.04037 2665.04037 0 0 0 379.921341 333.177744c8.80953 9.406786 21.165269 15.101459 34.690634 15.964162 13.51707 0.866851 26.46177-3.201957 36.308204-11.389345a2934.357318 2934.357318 0 0 0 36.287465-30.617679c20.057856-17.237479 20.67585-46.519626 2.38073-65.320755a2583.245296 2583.245296 0 0 1-115.921633-127.49762 47.726582 47.726582 0 0 0-31.662877-16.636076z" fill="#95DF00" p-id="1895"></path><path d="M982.984256 629.101629c28.191325 18.01723 32.882275 52.517074 9.004468 76.958957a3382.44053 3382.44053 0 0 1-36.104971 36.308203c-24.350635 24.226207-68.584927 28.543872-96.871646 9.344572a2934.108462 2934.108462 0 0 1-151.607694-109.596523c-26.528132-20.563865-27.063174-55.714884-2.600554-77.954384a3165.831447 3165.831447 0 0 0 36.26258-33.566632c24.002236-22.475914 64.176014-24.823463 90.658522-5.404339A2832.84864 2832.84864 0 0 0 982.984256 629.101629z" fill="#FF738C" p-id="1896"></path><path d="M909.745708 772.451426c-21.563439 2.094545-42.363718-2.778901-58.327881-13.616614a2940.483343 2940.483343 0 0 1-151.632579-109.936627c-31.044883-24.139107-31.434758-65.047013-2.820377-90.973741a3195.130184 3195.130184 0 0 0 36.266727-33.475384c13.550251-12.691695 31.828781-20.232056 51.687552-21.409978 19.875361-1.169627 38.912904 4.172499 53.865049 15.13464a2830.248087 2830.248087 0 0 0 151.234409 103.582484c32.948637 20.986921 38.622571 61.069452 10.713284 89.7419a3387.882198 3387.882198 0 0 1-36.092528 36.399451c-13.757632 13.670532-33.330217 22.467619-54.893656 24.553869z m-123.739884-251.10478c-14.292674 0.850261-27.411574 6.283634-37.071364 15.383496a3168.568871 3168.568871 0 0 1-36.258432 33.653731c-20.443584 18.635225-19.850475 47.821977 2.322664 64.951618a2931.093147 2931.093147 0 0 0 151.591103 109.252271c11.385197 7.677231 26.171437 11.11975 41.505163 9.630757 15.337872-1.47655 29.253114-7.689674 39.078808-17.395088a3413.721826 3413.721826 0 0 0 36.104971-36.208661c19.94587-20.356484 16.204724-49.053818-7.34957-64.163571a2842.413036 2842.413036 0 0 1-151.288328-104.246103c-10.671808-7.868022-24.34234-11.704564-38.635015-10.85845z" fill="#FF738C" p-id="1897"></path><path d="M693.89149 237.148062c-21.932577 21.957463-21.401683 57.108482 2.600553 77.950237 11.961716 10.369032 24.04786 20.655112 36.254284 30.85824 24.458473 20.522389 63.570463 18.324154 85.469859-4.678507a2945.883535 2945.883535 0 0 0 116.029471-128.783381c20.057856-23.670427 15.375201-58.174418-9.00032-76.954809a2520.711737 2520.711737 0 0 1-36.154742-28.440182c-23.935874-19.124643-58.829741-16.416252-78.941516 6.258748a2839.476526 2839.476526 0 0 1-116.257589 123.789654z" fill="#5FDFFF" p-id="1898"></path><path d="M776.988914 369.104367c-19.045838 1.061789-37.270449-4.794641-51.086148-16.378924a2682.028993 2682.028993 0 0 1-36.258432-30.937044c-13.550251-11.766778-21.11135-27.826335-21.517816-45.059667-0.414761-17.249922 6.312667-33.512712 18.701587-45.909927a2829.61765 2829.61765 0 0 0 116.270032-123.503469c11.347869-12.799533 26.996812-20.509946 44.27162-21.870363a67.361381 67.361381 0 0 1 47.610449 14.603745 2436.867742 2436.867742 0 0 0 36.146446 28.369672c13.76178 10.597151 22.650114 25.690314 24.798578 42.666494 2.152611 16.963737-2.766458 33.70765-14.085294 47.075407a2953.498552 2953.498552 0 0 1-116.008733 129.077861c-12.380624 12.986176-29.792303 20.812722-48.842289 21.866215z m72.031593-265.434783c-12.434543 0.982984-23.674574 6.53249-31.770715 15.70701a2844.955523 2844.955523 0 0 1-116.249294 124.079988c-8.846858 8.888334-13.562694 20.538979-13.185261 32.857389 0.377433 12.310115 5.831544 23.736789 15.499629 32.085933a2671.054409 2671.054409 0 0 0 36.250137 30.77114c9.858876 8.216421 22.807723 12.359886 36.341384 11.617464 13.533661-0.742423 25.914285-6.275338 34.744553-15.495482a2940.275962 2940.275962 0 0 0 116.041914-128.480604c8.075402-9.485591 11.654792-21.426568 10.19898-33.566631-1.45996-12.152506-7.727003-22.986071-17.544403-30.588645a2474.221144 2474.221144 0 0 1-36.158889-28.523134 48.195262 48.195262 0 0 0-34.168035-10.464428z" fill="#5FDFFF" p-id="1899"></path><path d="M207.044688 631.353782c-28.261834 18.560568-33.044032 53.815277-9.178667 78.394032 11.903649 12.235458 23.935874 24.396259 36.096675 36.482403 24.350635 24.296716 68.655436 28.050306 96.996075 8.303521a3296.730109 3296.730109 0 0 0 151.827518-111.811349c26.561313-20.821017 27.121241-56.059136 2.67521-78.369145a2868.240221 2868.240221 0 0 1-36.241842-33.736684c-23.973203-22.625228-64.126243-25.064025-90.650227-5.387749a3191.50517 3191.50517 0 0 1-151.524742 106.124971z" fill="#FFCC5F" p-id="1900"></path><path d="M280.12148 776.155244c-21.59662-1.829097-41.194091-10.47687-54.943428-24.197174a3056.458894 3056.458894 0 0 1-36.092528-36.57365c-27.909287-28.846648-22.11922-69.833358 10.924813-91.454865a3183.989696 3183.989696 0 0 0 151.499856-105.793162c14.972883-11.111455 34.018721-16.495056 53.885787-15.300544 19.862918 1.19866 38.124858 8.817825 51.666813 21.592473a2804.07665 2804.07665 0 0 0 36.241842 33.641288c13.807403 12.600448 21.310435 28.987667 20.883231 46.295655-0.427204 17.303841-8.792939 33.375841-23.78656 45.130176a3314.544107 3314.544107 0 0 1-151.839961 112.155601c-16.005638 11.140488-36.851541 16.341595-58.439865 14.504202z m124.171235-254.837632c-14.288526-0.850261-27.971501 3.027757-38.647457 10.99947a3198.518784 3198.518784 0 0 1-151.541333 106.460928c-23.624803 15.557696-27.436459 44.852286-7.494736 65.337345a3012.933845 3012.933845 0 0 0 36.10497 36.382861c9.809104 9.734447 23.740936 15.856324 39.095399 17.16697 15.354463 1.314793 30.165589-2.347549 41.579819-10.248752a3296.676191 3296.676191 0 0 0 151.819223-111.467096c10.692546-8.34085 16.73147-19.784114 17.121346-32.156443 0.389876-12.380624-4.894183-24.126664-14.740616-33.164313a2845.901178 2845.901178 0 0 1-36.241842-33.823783c-9.651495-9.157929-22.774542-14.632778-37.054773-15.487187z" fill="#FFCC5F" p-id="1901"></path><path d="M485.067476 761.49758c22.907266 0.609699 45.822827 0.991279 68.738388 1.140593l-1.235988 99.62981a3527.503291 3527.503291 0 0 1-70.729243-1.028608l3.226843-99.741795zM631.714625 762.273183a3421.726719 3421.726719 0 0 0 68.725945-1.783473l2.998725 99.252377c-23.566736 0.895884-47.133473 1.555355-70.708505 1.982558l-1.016165-99.451462z" fill="#99681C" p-id="1902"></path></svg>