<?xml version="1.0" standalone="no"?><!DOCTYPE svg PUBLIC "-//W3C//DTD SVG 1.1//EN" "http://www.w3.org/Graphics/SVG/1.1/DTD/svg11.dtd"><svg t="1729219166108" class="icon" viewBox="0 0 1024 1024" version="1.1" xmlns="http://www.w3.org/2000/svg" p-id="2217" xmlns:xlink="http://www.w3.org/1999/xlink" width="16" height="16"><path d="M924.01 453.88c0 52.15-23.07 98.9-59.56 130.63C834.08 610.92 794.4 626.9 751 626.9H248.61c-1.21 0-2.4-0.02-3.61-0.05-80.43-1.91-145.02-67.7-145.02-148.58 0-82.09 66.54-148.63 148.63-148.63 1.43 0 2.85 0.02 4.28 0.07-0.44-3.66-0.65-7.4-0.65-11.17 0-52.57 42.63-95.22 95.22-95.22 9.09 0 17.88 1.27 26.21 3.67 21.97-85.3 99.41-148.32 191.57-148.32 109.25 0 197.81 88.56 197.81 197.81 0 1.61-0.02 3.2-0.07 4.8 89.96 6.15 161.03 81.07 161.03 172.6zM814.22 832H209.78c-11.81 0-21.39-9.58-21.39-21.39s9.58-21.39 21.39-21.39h604.44c11.81 0 21.39 9.58 21.39 21.39S826.03 832 814.22 832zM448.07 733.57H209.78c-11.81 0-21.39-9.58-21.39-21.39s9.58-21.39 21.39-21.39h238.29c11.81 0 21.39 9.58 21.39 21.39s-9.58 21.39-21.39 21.39zM814.22 733.57H575.93c-11.81 0-21.39-9.58-21.39-21.39s9.58-21.39 21.39-21.39h238.29c11.81 0 21.39 9.58 21.39 21.39s-9.58 21.39-21.39 21.39z" fill="#54C2F0" p-id="2218"></path><path d="M209.78 945.32c-11.81 0-21.39-9.58-21.39-21.39s9.58-21.39 21.39-21.39h238.29c11.81 0 21.39 9.58 21.39 21.39s-9.58 21.39-21.39 21.39H209.78zM575.93 945.32c-11.81 0-21.39-9.58-21.39-21.39s9.58-21.39 21.39-21.39h238.29c11.81 0 21.39 9.58 21.39 21.39s-9.58 21.39-21.39 21.39H575.93z" fill="#54C2F0" p-id="2219"></path></svg>