<?xml version="1.0" standalone="no"?><!DOCTYPE svg PUBLIC "-//W3C//DTD SVG 1.1//EN" "http://www.w3.org/Graphics/SVG/1.1/DTD/svg11.dtd"><svg t="1729219176288" class="icon" viewBox="0 0 1024 1024" version="1.1" xmlns="http://www.w3.org/2000/svg" p-id="2704" xmlns:xlink="http://www.w3.org/1999/xlink" width="16" height="16"><path d="M292.92 918.88c-5.43 0-10.89-1.89-15.3-5.74-9.69-8.46-10.68-23.16-2.23-32.85l65.09-74.57c8.46-9.69 23.17-10.68 32.85-2.23 9.69 8.46 10.68 23.16 2.23 32.85l-65.09 74.57c-4.6 5.27-11.06 7.97-17.55 7.97zM476.23 918.88c-5.43 0-10.89-1.89-15.3-5.74-9.69-8.46-10.68-23.16-2.23-32.85l65.09-74.57c8.45-9.69 23.17-10.68 32.85-2.23 9.69 8.46 10.68 23.16 2.23 32.85l-65.09 74.57a23.25 23.25 0 0 1-17.55 7.97zM659.53 918.88c-5.43 0-10.89-1.89-15.3-5.74-9.69-8.46-10.68-23.16-2.23-32.85l65.09-74.57c8.46-9.69 23.17-10.68 32.85-2.23 9.69 8.46 10.68 23.16 2.23 32.85l-65.09 74.57c-4.6 5.27-11.06 7.97-17.55 7.97zM960.19 513.04c0 56.76-25.11 107.65-64.83 142.18-33.05 28.75-76.24 46.14-123.47 46.14h-546.8c-1.31 0-2.61-0.02-3.92-0.05-87.53-2.08-157.84-73.68-157.84-161.71 0-89.34 72.42-161.76 161.76-161.76 1.55 0 3.1 0.02 4.65 0.07-0.47-3.98-0.71-8.05-0.71-12.16 0-57.22 46.39-103.63 103.63-103.63 9.89 0 19.46 1.39 28.53 4 23.91-92.84 108.19-161.43 208.5-161.43 118.91 0 215.29 96.39 215.29 215.29 0 1.75-0.02 3.49-0.07 5.22 97.93 6.68 175.28 88.22 175.28 187.84z" fill="#54C2F0" p-id="2705"></path></svg>