<?xml version="1.0" standalone="no"?><!DOCTYPE svg PUBLIC "-//W3C//DTD SVG 1.1//EN" "http://www.w3.org/Graphics/SVG/1.1/DTD/svg11.dtd"><svg t="1729219148604" class="icon" viewBox="0 0 1024 1024" version="1.1" xmlns="http://www.w3.org/2000/svg" p-id="1893" xmlns:xlink="http://www.w3.org/1999/xlink" width="16" height="16"><path d="M484.16 233.8c-2.69 0-5.4-0.94-7.59-2.85-4.8-4.19-5.3-11.49-1.11-16.29l58.1-66.56c4.19-4.8 11.48-5.3 16.29-1.11 4.8 4.19 5.3 11.49 1.11 16.29l-58.1 66.56a11.496 11.496 0 0 1-8.7 3.96zM160.02 613.36c-2.69 0-5.4-0.94-7.59-2.85-4.8-4.19-5.3-11.49-1.11-16.29l58.1-66.56c4.19-4.81 11.49-5.3 16.29-1.11 4.8 4.19 5.3 11.49 1.11 16.29l-58.1 66.56a11.496 11.496 0 0 1-8.7 3.96zM558.65 346.75c-5.72 0-10.68-4.24-11.44-10.06-0.82-6.32 3.64-12.11 9.97-12.93l87.62-11.35c6.31-0.82 12.11 3.64 12.93 9.97 0.82 6.32-3.64 12.11-9.97 12.93l-87.62 11.35c-0.5 0.06-1 0.09-1.49 0.09zM195.85 281.07c-2.58 0-5.17-0.86-7.32-2.62l-68.28-56.07c-4.93-4.05-5.64-11.32-1.6-16.25 4.05-4.93 11.32-5.64 16.25-1.6l68.28 56.07c4.93 4.05 5.64 11.32 1.6 16.25a11.515 11.515 0 0 1-8.93 4.22zM76.61 429.53a11.548 11.548 0 0 1-1.12-23.04l87.93-8.64c6.32-0.62 11.99 4.01 12.62 10.36 0.62 6.35-4.02 11.99-10.36 12.62l-87.93 8.64c-0.39 0.04-0.77 0.06-1.14 0.06zM326.13 207.88c-5.5 0-10.37-3.94-11.36-9.54l-15.33-87.01c-1.11-6.28 3.09-12.27 9.37-13.37 6.28-1.1 12.27 3.09 13.37 9.37l15.33 87.01c1.11 6.28-3.09 12.27-9.37 13.37-0.68 0.11-1.35 0.17-2.01 0.17z" fill="#EED97C" p-id="1894"></path><path d="M958.93 758.13c0 50.67-22.42 96.08-57.87 126.91-29.5 25.66-68.05 41.18-110.21 41.18H302.79c-1.17 0-2.33-0.02-3.5-0.05-78.13-1.86-140.89-65.77-140.89-144.34 0-79.74 64.64-144.39 144.39-144.39 1.38 0 2.77 0.02 4.15 0.07-0.42-3.55-0.64-7.18-0.64-10.85 0-51.07 41.41-92.5 92.5-92.5 8.83 0 17.37 1.24 25.46 3.57 21.34-82.87 96.57-144.09 186.11-144.09 106.14 0 192.17 86.03 192.17 192.17 0 1.56-0.02 3.11-0.07 4.66 87.41 5.96 156.46 78.75 156.46 167.66z" fill="#54C2F0" p-id="1895"></path><path d="M317.04 538.66c21.47-19.96 50.21-32.2 81.76-32.2 2.13 0 4.25 0.06 6.37 0.17 20.19-52.46 59.41-94.29 108.4-118.29C510.74 307.04 443.95 242 361.96 242c-83.79 0-151.72 67.93-151.72 151.72 0 68.15 44.94 125.79 106.8 144.94z" fill="#F6DF7B" p-id="1896"></path></svg>