<svg
                  t="1691973382237"
                  class="icon"
                  viewBox="0 0 1024 1024"
                  version="1.1"
                  xmlns="http://www.w3.org/2000/svg"
                  p-id="1657"
                  width="22"
                  height="22"
                >
                  <path
                    d="M947.200512 153.6S1024.000512 86.6816 1024.000512 40.96a195.4304 195.4304 0 0 1-112.64-40.96 40.96 40.96 0 0 0-40.96 40.96c0 50.0736 76.8 112.64 76.8 112.64z m-66.56 102.4a40.0384 40.0384 0 0 1-71.68 0 40.96 40.96 0 0 0-40.96 40.96c0 50.0224 76.8 112.64 76.8 112.64S921.600512 342.6816 921.600512 296.96a40.96 40.96 0 0 0-40.96-40.96z m102.4 256a40.0384 40.0384 0 0 1-71.68 0 40.96 40.96 0 0 0-40.96 40.96c0 50.0224 76.8 112.64 76.8 112.64s76.8-66.9184 76.8-112.64a40.96 40.96 0 0 0-40.96-40.96z m-204.8 204.8a40.0384 40.0384 0 0 1-71.68 0 40.96 40.96 0 0 0-40.96 40.96c0 50.0224 76.8 112.64 76.8 112.64s76.8-66.9184 76.8-112.64a40.96 40.96 0 0 0-40.96-40.96zM506.880512 153.6A209.92 209.92 0 0 0 358.400512 215.8592 209.408 209.408 0 0 0 0.000512 363.52c0 239.5648 232.0384 427.6224 307.2 482.304V1024h102.4v-178.4832c74.7008-55.1936 307.2-245.76 307.2-481.9968A209.92 209.92 0 0 0 506.880512 153.6zM358.400512 756.0192C286.720512 701.5936 102.400512 544.6656 102.400512 363.52a107.1616 107.1616 0 0 1 207.9232-36.9152 51.2 51.2 0 0 0 96.1024 0A107.2128 107.2128 0 0 1 614.400512 363.52c0 178.176-184.32 337.2544-256 392.4992z"
                    fill="#d81e06"
                    p-id="1658"
                  ></path>
                </svg>