<svg
                          t="1691974790469"
                          class="icon"
                          viewBox="0 0 1069 1024"
                          version="1.1"
                          xmlns="http://www.w3.org/2000/svg"
                          p-id="1689"
                          width="20"
                          height="20"
                        >
                          <path
                            d="M731.428571 686.08m-337.92 0a337.92 337.92 0 1 0 675.84 0 337.92 337.92 0 1 0-675.84 0Z"
                            fill="#5CF1E7"
                            p-id="1690"
                          ></path>
                          <path
                            d="M320.853333 97.52381a20.48 20.48 0 0 1 20.48 20.48v202.849523a20.48 20.48 0 0 1-20.48 20.48H118.00381A20.48 20.48 0 0 1 97.52381 320.853333V118.00381A20.48 20.48 0 0 1 118.00381 97.52381h202.849523m0-97.52381H118.00381A118.00381 118.00381 0 0 0 0 118.00381v202.849523A118.00381 118.00381 0 0 0 118.00381 438.857143h202.849523A118.00381 118.00381 0 0 0 438.857143 320.853333V118.00381A118.00381 118.00381 0 0 0 320.853333 0zM857.234286 97.52381a20.48 20.48 0 0 1 20.48 20.48v202.849523a20.48 20.48 0 0 1-20.48 20.48h-202.849524a20.48 20.48 0 0 1-20.48-20.48V118.00381a20.48 20.48 0 0 1 20.48-20.48h202.849524m0-97.52381h-202.849524A118.00381 118.00381 0 0 0 536.380952 118.00381v202.849523A118.00381 118.00381 0 0 0 654.384762 438.857143h202.849524A118.00381 118.00381 0 0 0 975.238095 320.853333V118.00381A118.00381 118.00381 0 0 0 857.234286 0zM320.853333 633.904762a20.48 20.48 0 0 1 20.48 20.48v202.849524a20.48 20.48 0 0 1-20.48 20.48H118.00381a20.48 20.48 0 0 1-20.48-20.48v-202.849524a20.48 20.48 0 0 1 20.48-20.48h202.849523m0-97.52381H118.00381A118.00381 118.00381 0 0 0 0 654.384762v202.849524A118.00381 118.00381 0 0 0 118.00381 975.238095h202.849523A118.00381 118.00381 0 0 0 438.857143 857.234286v-202.849524A118.00381 118.00381 0 0 0 320.853333 536.380952z"
                            fill="#1F56F5"
                            p-id="1691"
                          ></path>
                          <path
                            d="M755.809524 986.940952a231.131429 231.131429 0 1 1 231.131428-231.131428 48.761905 48.761905 0 0 1-97.523809 0 133.607619 133.607619 0 1 0-48.761905 102.887619 48.761905 48.761905 0 0 1 68.754286 6.826667 48.761905 48.761905 0 0 1-6.826667 68.266666 231.131429 231.131429 0 0 1-146.773333 53.150476z"
                            fill="#A8B9E9"
                            p-id="1692"
                          ></path>
                        </svg>