<svg
                          t="1691974957244"
                          class="icon"
                          viewBox="0 0 1029 1024"
                          version="1.1"
                          xmlns="http://www.w3.org/2000/svg"
                          p-id="1868"
                          width="22"
                          height="22"
                        >
                          <path
                            d="M960.324424 0.048534l-369.924663 14.796987c-16.276685 0-32.55337 7.398493-44.390959 19.236082L19.236082 559.374624c-25.154877 25.154877-25.154877 66.586439 0 93.221015L369.924663 1004.763918c25.154877 25.154877 66.586439 25.154877 93.221014 0L991.398096 477.991198c11.837589-11.837589 17.756384-26.634576 19.236082-42.911261l19.236082-365.485566c0-38.472165-31.073672-71.025535-69.545836-69.545837zM843.428231 238.280017c-34.033069 5.918795-63.627042-23.675178-57.708248-57.708248 4.439096-19.236082 19.236082-34.033069 38.472165-38.472164 34.033069-5.918795 63.627042 23.675178 57.708247 57.708247-2.959397 19.236082-19.236082 34.033069-38.472164 38.472165z"
                            fill="#F39800"
                            p-id="1869"
                          ></path>
                        </svg>