<svg
              viewBox="0 0 1024 1024"
              width="16"
              height="16"
              version="1.1"
              xmlns="http://www.w3.org/2000/svg"
            >
              <path
                d="M873.4208 678.4l-196.3008 196.3008c-53.4016 53.4016-140.032 53.4016-193.4336 0L215.04 606.0032a136.7296 136.7296 0 0 1-40.0384-97.9968l2.304-243.2512c0.4096-42.752 34.4064-77.568 77.1584-78.9504l250.4704-8.1408a136.8576 136.8576 0 0 1 101.1712 39.9872l267.3664 267.3664c53.3504 53.4016 53.3504 139.9808-0.0512 193.3824z"
                fill="#f37d07"
                p-id="1110"
              ></path>
              <path
                d="M568.1152 945.7152c-47.872 0-92.8768-18.6368-126.72-52.48l-301.7728-301.7728c-33.792-33.792-52.9408-80.5888-52.48-128.4096l2.56-273.152a114.98496 114.98496 0 0 1 111.4112-114.0224l281.2928-9.1648c49.3568-1.6384 97.6384 17.5104 132.5568 52.3776a25.61536 25.61536 0 0 1 0 36.1984 25.61536 25.61536 0 0 1-36.1984 0 128.37888 128.37888 0 0 0-94.6688-37.4272l-281.2928 9.1648c-34.3552 1.1264-61.5424 28.928-61.9008 63.3344l-2.56 273.152c-0.3072 34.1504 13.3632 67.584 37.4784 91.6992l301.7728 301.7728c24.1664 24.1664 56.32 37.4784 90.5216 37.4784s66.3552-13.312 90.5216-37.4784l220.416-220.416c24.1664-24.1664 37.4784-56.32 37.4784-90.5216s-13.312-66.3552-37.4784-90.5216L691.712 268.3392c-9.984-9.984-10.0352-26.2144 0-36.1984a25.61536 25.61536 0 0 1 36.1984 0l187.3408 187.1872c33.8432 33.8432 52.48 78.848 52.48 126.72s-18.6368 92.8768-52.48 126.72l-220.416 220.416c-33.8944 33.8944-78.8992 52.5312-126.72 52.5312z"
                fill="#44454A"
                p-id="1111"
              ></path>
              <path
                d="M655.104 221.2352c-6.6048 0-13.2096-2.56-18.2272-7.6288l-9.9328-10.0864a25.5744 25.5744 0 0 1 0.3072-36.1984 25.5744 25.5744 0 0 1 36.1984 0.3072l9.9328 10.0864a25.5744 25.5744 0 0 1-18.2784 43.52z"
                fill="#44454A"
                p-id="1112"
              ></path>
              <path
                d="M369.8176 347.0336m-86.6816 0a86.6816 86.6816 0 1 0 173.3632 0 86.6816 86.6816 0 1 0-173.3632 0Z"
                fill="#FD973F"
                p-id="1113"
              ></path>
              <path
                d="M369.8176 459.3152c-61.9008 0-112.2816-50.3808-112.2816-112.2816s50.3808-112.2816 112.2816-112.2816 112.2816 50.3808 112.2816 112.2816-50.3808 112.2816-112.2816 112.2816z m0-173.3632c-33.6896 0-61.0816 27.392-61.0816 61.0816s27.392 61.0816 61.0816 61.0816 61.0816-27.392 61.0816-61.0816-27.392-61.0816-61.0816-61.0816zM414.6688 677.7344c-6.6048 0-13.2096-2.56-18.2272-7.6288a25.5744 25.5744 0 0 1 0.256-36.1984l261.7856-258.4064a25.5744 25.5744 0 0 1 36.1984 0.256 25.5744 25.5744 0 0 1-0.256 36.1984L432.64 670.3616c-4.9664 4.9152-11.4688 7.3728-17.9712 7.3728zM523.2128 791.3984c-6.5536 0-13.1072-2.5088-18.1248-7.4752a25.61536 25.61536 0 0 1 0-36.1984l192.8192-192.8192a25.61536 25.61536 0 0 1 36.1984 0 25.61536 25.61536 0 0 1 0 36.1984l-192.8192 192.8192c-4.9664 4.9664-11.52 7.4752-18.0736 7.4752z"
                fill="#44454A"
                p-id="1114"
              ></path>
            </svg>