<svg
                  t="1691972980162"
                  class="icon"
                  viewBox="0 0 1024 1024"
                  version="1.1"
                  xmlns="http://www.w3.org/2000/svg"
                  p-id="1627"
                  width="25"
                  height="25"
                >
                  <path
                    d="M815 675.5c0 159.3-145 240.3-323.9 240.3s-323.9-81-323.9-240.3S265.7 318 491.1 318 815 516.2 815 675.5z"
                    fill="#FF4633"
                    p-id="1628"
                  ></path>
                  <path
                    d="M491.1 934.3c-208 0-342.3-101.6-342.3-258.8 0-90.8 29.6-181.8 81.2-249.7 43.8-57.6 124.6-126.3 261.2-126.3s217.4 68.7 261.2 126.3c51.6 67.9 81.2 158.9 81.2 249.7-0.2 157.2-134.5 258.8-342.5 258.8z m0-597.9c-224.1 0-305.4 202.8-305.4 339.1 0 163.8 164.5 221.9 305.4 221.9s305.4-58.1 305.4-221.9c0-136.3-81.3-339.1-305.4-339.1z"
                    fill="#840000"
                    p-id="1629"
                  ></path>
                  <path
                    d="M487.5 402.8c-145.7 0-214.1-26.7-226.1-120.9-8.2-64.8 38.5-98.7 75.6-57.6 27.6 30.6 34.6 54.2 65.6 54.2s59.5-75.2 105.2-75.2c53.4 0 66.5 76.5 107.7 75.9 35.1-0.5 63-75.2 107.4-57.8 44.6 17.4 27.5 125.4-53.2 165.2-51.9 25.5-129.3 16.2-182.2 16.2z"
                    fill="#FF4633"
                    p-id="1630"
                  ></path>
                  <path
                    d="M563.6 422.9c-14.6 0-28.9-0.5-42.2-0.9-12.1-0.4-23.5-0.8-33.9-0.8-140.1 0-229.9-22.9-244.4-137-5.4-42.5 9.5-78.5 38-91.6 23.1-10.6 49.1-3.4 69.6 19.3 7.8 8.7 14 16.7 19.4 23.7 14.6 18.9 19.4 24.4 32.5 24.4 5.7 0 19.9-16.2 28.5-25.9 19.3-21.9 43.3-49.3 76.7-49.3 37.3 0 58.6 27 75.7 48.7 13.4 17 22.1 27.3 31.8 27.2 7.5-0.1 20.1-12.8 30.2-23 20.1-20.2 47.5-47.9 84.2-33.6 21.4 8.4 34.5 30 35.7 59.1 2 47.1-27.4 110.2-87.5 139.8-33.3 16.5-75 19.9-114.3 19.9zM302.7 224.8c-2 0-4.1 0.4-6.2 1.4-10.8 4.9-20.6 23.7-16.8 53.4 10 78.3 62.4 104.8 207.8 104.8 10.9 0 22.7 0.4 35.1 0.8 45.3 1.5 101.7 3.3 139-15.1C707 347.7 730 299.2 728.5 265c-0.3-6.6-2-22.3-12.3-26.3-13.2-5.2-25.6 6.1-44.6 25.2-16.4 16.5-33.3 33.6-55.9 33.9h-0.8c-28 0-45.2-21.9-60.5-41.2-17-21.6-28.6-34.7-46.7-34.7-16.7 0-33.8 19.5-49 36.7-17.4 19.8-33.8 38.4-56.2 38.4-31.9 0-46.4-18.8-61.7-38.8-5.3-6.8-10.7-13.9-17.6-21.5-4.2-4.9-12-11.9-20.5-11.9z"
                    fill="#840000"
                    p-id="1631"
                  ></path>
                  <path
                    d="M286.1 574.2c-18.3-6.6-27.8-26.9-21.3-45.1l45.3-126.2c6.6-18.3 26.9-27.8 45.1-21.3 18.3 6.6 27.8 26.9 21.3 45.1l-45.3 126.2c-6.5 18.3-26.8 27.9-45.1 21.3z"
                    fill="#FFAC33"
                    p-id="1632"
                  ></path>
                  <path
                    d="M298 594.7c-6 0-12.1-1-18.1-3.2-27.9-10-42.4-40.8-32.4-68.7l45.3-126.2c10-27.9 40.8-42.5 68.7-32.4 27.9 10 42.4 40.8 32.4 68.7l-45.3 126.2c-7.9 22-28.6 35.6-50.6 35.6z m-5.7-37.9c8.7 3.1 18.4-1.4 21.5-10.2l45.3-126.2c3.1-8.7-1.4-18.4-10.2-21.5-8.8-3.1-18.4 1.4-21.5 10.2l-45.3 126.2c-3.1 8.7 1.5 18.4 10.2 21.5z"
                    fill="#840000"
                    p-id="1633"
                  ></path>
                  <path
                    d="M491.1 437.5c-129.1 0-238.8-28.8-238.8-63.6s19.1-47.2 44.6-38.6c25.7 8.7 83.4 25 194.2 25s164-15.7 194.2-25 44.6 0.2 44.6 38.6-109.7 63.6-238.8 63.6z"
                    fill="#FFAC33"
                    p-id="1634"
                  ></path>
                  <path
                    d="M491.1 456c-89 0-257.2-17.1-257.2-82 0-29.7 11.7-44.3 21.4-51.3 12.7-9.1 29.5-10.8 47.5-4.7 47.3 15.9 110.7 24 188.3 24 110 0 161.2-15.7 188.8-24.2 7.7-2.4 31.3-9.6 49.3 3.7 17.2 12.7 19.2 36.1 19.2 52.5 0 79.7-231 82-257.3 82zM282.3 351.2c-2.3 0-4.1 0.5-5.4 1.4-3.8 2.7-6.1 10.7-6.1 21.4 4.5 15.1 86.3 45.1 220.4 45.1 152.6 0 220.4-32.7 220.4-45.1 0-19.2-4.2-22.8-4.2-22.9 0 0-3.4-2.1-16.6 1.9-29.4 9-84.1 25.8-199.6 25.8-81.6 0-148.9-8.7-200.1-26-3.3-1.1-6.3-1.6-8.8-1.6z"
                    fill="#840000"
                    p-id="1635"
                  ></path>
                  <path
                    d="M649 540.2c-7.6 0-14.8-4.8-17.4-12.4l-29.3-84.2c-3.3-9.6 1.7-20.1 11.4-23.5 9.6-3.4 20.1 1.7 23.5 11.4l29.3 84.2c3.3 9.6-1.7 20.1-11.4 23.5-2 0.6-4.1 1-6.1 1z"
                    fill="#840000"
                    p-id="1636"
                  ></path>
                  <path
                    d="M890.2 359.1c-14.5-26.6-47.7-36.5-74.4-22-26.6 14.5-36.5 47.7-22 74.4 14.5 26.6 47.7 36.5 74.4 22 26.6-14.5 36.5-47.8 22-74.4z m-56.8 44.6l-11.5-21.2c-1.1-2.1-0.4-4.7 1.7-5.9l21.2-11.5c2.1-1.1 4.7-0.4 5.9 1.7l11.5 21.2c1.1 2.1 0.4 4.7-1.7 5.9l-21.2 11.5c-2.1 1.2-4.7 0.4-5.9-1.7z"
                    fill="#840000"
                    p-id="1637"
                  ></path>
                  <path
                    d="M941.4 218.2c-11.1-37.4-50.4-58.7-87.8-47.6S794.9 221 806 258.3c11.1 37.4 50.4 58.7 87.8 47.6 37.3-11.1 58.6-50.3 47.6-87.7z m-83.5 40.9l-8.8-29.7c-0.9-2.9 0.8-6 3.7-6.9l29.7-8.8c2.9-0.9 6 0.8 6.9 3.7l8.8 29.7c0.9 2.9-0.8 6-3.7 6.9l-29.7 8.8c-3 0.9-6-0.7-6.9-3.7z"
                    fill="#840000"
                    p-id="1638"
                  ></path>
                  <path
                    d="M491.1 692.2m-86.6 0a86.6 86.6 0 1 0 173.2 0 86.6 86.6 0 1 0-173.2 0Z"
                    fill="#FFAC33"
                    p-id="1639"
                  ></path>
                  <path
                    d="M491.1 797.3c-57.9 0-105.1-47.1-105.1-105.1 0-57.9 47.1-105.1 105.1-105.1s105.1 47.1 105.1 105.1c0 57.9-47.1 105.1-105.1 105.1z m0-173.3c-37.6 0-68.2 30.6-68.2 68.2s30.6 68.2 68.2 68.2 68.2-30.6 68.2-68.2-30.6-68.2-68.2-68.2z"
                    fill="#840000"
                    p-id="1640"
                  ></path>
                </svg>