<svg
          viewBox="0 0 1024 1024"
          width="45"
          height="45"
          version="1.1"
          xmlns="http://www.w3.org/2000/svg"
        >
          <path
            d="M768.7168 365.9264c-15.9232-125.6448-123.136-222.8224-253.0816-222.8224S278.4256 240.2816 262.5024 365.9264c-116.1216 25.088-203.1616 128.3072-203.1616 251.9552 0 142.3872 115.456 257.8432 257.8432 257.8432h396.9024c142.3872 0 257.8432-115.456 257.8432-257.8432-0.0512-123.5968-87.0912-226.8672-203.2128-251.9552z"
            fill="#FF5D50"
            p-id="1256"
          ></path>
          <path
            d="M591.872 571.5968v189.8496c0 15.104-12.2368 27.3408-27.3408 27.3408H466.688c-15.104 0-27.3408-12.2368-27.3408-27.3408v-189.8496H352.0512c-23.9616 0-36.352-28.6208-19.9168-46.08l163.5328-174.2336a27.33568 27.33568 0 0 1 39.8848 0l163.5328 174.2336c16.384 17.4592 3.9936 46.08-19.9168 46.08H591.872z"
            fill="#FFDF99"
            p-id="1257"
          ></path>
        </svg>